<?xml version="1.0" encoding="UTF-8" standalone="no"?>
<!-- Created with Inkscape (http://www.inkscape.org/) -->

<svg
   xmlns:dc="http://purl.org/dc/elements/1.1/"
   xmlns:cc="http://creativecommons.org/ns#"
   xmlns:rdf="http://www.w3.org/1999/02/22-rdf-syntax-ns#"
   xmlns:svg="http://www.w3.org/2000/svg"
   xmlns="http://www.w3.org/2000/svg"
   xmlns:sodipodi="http://sodipodi.sourceforge.net/DTD/sodipodi-0.dtd"
   xmlns:inkscape="http://www.inkscape.org/namespaces/inkscape"
   width="1024"
   height="768"
   id="svg2"
   version="1.1"
   inkscape:version="0.48.4 r9939"
   sodipodi:docname="titel.svg">
  <defs
     id="defs4" />
  <sodipodi:namedview
     id="base"
     pagecolor="#ffffff"
     bordercolor="#666666"
     borderopacity="1.0"
     inkscape:pageopacity="0.0"
     inkscape:pageshadow="2"
     inkscape:zoom="0.88411458"
     inkscape:cx="463.20274"
     inkscape:cy="386.09889"
     inkscape:document-units="px"
     inkscape:current-layer="layer1"
     showgrid="false"
     width="1024px"
     inkscape:window-width="1600"
     inkscape:window-height="886"
     inkscape:window-x="0"
     inkscape:window-y="14"
     inkscape:window-maximized="0" />
  <metadata
     id="metadata7">
    <rdf:RDF>
      <cc:Work
         rdf:about="">
        <dc:format>image/svg+xml</dc:format>
        <dc:type
           rdf:resource="http://purl.org/dc/dcmitype/StillImage" />
        <dc:title />
      </cc:Work>
    </rdf:RDF>
  </metadata>
  <g
     inkscape:label="Ebene 1"
     inkscape:groupmode="layer"
     id="layer1"
     transform="translate(0,-284.3623)">
    <g
       id="g3181"
       transform="matrix(1.2447217,0,0,1.2447217,100.95924,-150.25282)"
       style="fill:#009ee0;fill-opacity:1">
      <path
         transform="translate(0,284.3623)"
         inkscape:connector-curvature="0"
         d="m 153.47066,103.46055 c -5.93197,13.20717 -11.72405,26.47434 -17.75995,39.6356 -8.91305,19.13248 -18.4321,37.97286 -27.90386,56.83227 -2.68711,5.34228 -5.38739,10.67799 -8.120059,15.99714 -1.17704,2.29111 -2.301038,4.57667 -3.699111,6.73917 -0.32127,0.31584 -0.64254,0.63169 -0.96381,0.94753 0,0 -0.101645,0.12142 -0.101645,0.12142 l 0,0 c -0.499344,0.3335 -0.998688,0.667 -1.498032,1.0005 -0.133094,-0.15233 -0.408536,-0.25492 -0.399281,-0.45699 0.04206,-0.91822 1.545565,-4.16122 1.693441,-4.48698 2.409588,-5.30818 5.141126,-10.46343 7.716607,-15.69063 9.52438,-18.88754 19.11347,-37.74756 28.0548,-56.92111 6.17317,-13.28782 12.02602,-26.71869 18.19558,-40.00592 0,0 4.78532,-3.712 4.78532,-3.712 z"
         id="path3049"
         style="fill:#009ee0;fill-opacity:1;fill-rule:nonzero;stroke:none" />
      <path
         transform="translate(0,284.3623)"
         inkscape:connector-curvature="0"
         d="m 144.05253,110.03159 c 0.79247,10.75938 2.56568,21.40719 4.42553,32.0231 2.91628,15.84151 6.65289,31.51141 10.57276,47.12918 2.10081,8.4261 4.42527,16.80307 6.12933,25.3221 0.0595,1.96698 1.28543,4.31914 0.57417,6.28376 -4.01644,2.25035 -3.78264,3.19882 -2.93052,0.0207 0,0 0.11895,-0.10453 0.11895,-0.10453 l 0,0 c 2.20056,1.73723 1.12027,0.40834 -2.36071,4.5633 -0.80837,-0.47356 -0.58821,-4.88804 -1.07328,-5.7258 -1.6517,-8.55517 -3.87496,-16.98339 -5.93632,-25.44581 -3.82974,-15.70143 -7.57592,-31.43429 -10.397,-47.35458 -1.83914,-10.76674 -3.56616,-21.58176 -3.96982,-32.51645 0,0 4.84691,-4.19496 4.84691,-4.19496 z"
         id="path3051"
         style="fill:#009ee0;fill-opacity:1;fill-rule:nonzero;stroke:none" />
      <path
         transform="translate(0,284.3623)"
         inkscape:connector-curvature="0"
         d="m 152.21009,190.63548 c -6.11795,0.28537 -12.2466,0.14054 -18.36802,0.065 -4.38928,-0.25635 -8.98063,0.54685 -13.24489,-0.77261 -0.90653,-1.3663 -0.64387,-0.56398 -0.53788,-2.47487 0,0 0.10587,-0.11776 0.10587,-0.11776 l 0,0 c 2.75654,-1.30486 1.38416,-0.74737 4.10709,-1.69702 4.82555,-0.8853 9.70476,-0.98167 14.60295,-0.81552 6.09013,0.0809 12.18068,0.12436 18.27049,-0.0162 0,0 -4.93561,5.829 -4.93561,5.829 z"
         id="path3053"
         style="fill:#009ee0;fill-opacity:1;fill-rule:nonzero;stroke:none" />
      <path
         transform="translate(0,284.3623)"
         inkscape:connector-curvature="0"
         d="m 180.12594,167.70655 c -2.00773,6.32955 -2.31928,12.99128 -2.39452,19.57878 0.0351,8.58678 1.30952,17.07989 3.83086,25.27684 1.38296,3.63767 3.23491,7.82762 7.39198,8.89561 0.67937,0.17454 1.39157,0.17763 2.08736,0.26645 2.50926,-0.0908 4.81635,-0.87667 6.86069,-2.35317 0.76895,-0.55536 2.87471,-2.47541 2.13926,-1.87641 -3.71951,3.02944 -3.87876,4.04647 -1.304,-0.36404 3.31356,-7.35944 3.08343,-15.41227 2.31099,-23.26386 -0.55038,-4.33539 -1.38835,-8.63816 -2.66398,-12.82002 -0.6649,-1.63657 -2.80707,0.58887 4.80578,-4.58506 0.28456,-0.1934 -0.0887,0.68268 -0.11519,1.02571 -0.11803,1.52925 -0.12463,2.66864 -0.16766,4.24849 -0.20417,8.20117 0.31257,16.39347 0.91429,24.56752 0.56053,6.43592 1.30067,12.85249 1.75846,19.29707 0.27792,2.38529 -0.0962,3.53336 -1.12551,5.61168 0,0 -0.11061,0.1133 -0.11061,0.1133 l 0,0 c -2.18824,0.93982 -2.49812,0.55388 -3.42005,-1.60242 -1.85732,-5.99543 -2.25474,-12.27728 -2.7744,-18.50246 -0.60871,-8.22319 -1.11586,-16.47094 -0.86343,-24.72057 0.0144,-0.29671 0.12631,-5.23958 0.40445,-5.57429 1.97271,-2.37395 4.57976,-7.73902 5.72706,-4.43252 1.20686,4.27216 1.93967,8.67516 2.57531,13.0619 0.84342,7.8191 1.24814,15.83526 -1.70708,23.30063 -2.95131,5.68563 -1.32855,3.22052 -8.56401,10.47796 -2.60477,2.61267 -6.01682,4.03385 -9.68111,4.07625 -0.75127,-0.12297 -1.52347,-0.15412 -2.25381,-0.36892 -4.35482,-1.28077 -6.39338,-5.47368 -7.8148,-9.41248 -2.4858,-8.31654 -3.77061,-16.91898 -3.79685,-25.61118 0.11023,-6.81234 0.46391,-13.70182 2.7667,-20.18615 0,0 5.18382,-4.12464 5.18382,-4.12464 z"
         id="path3055"
         style="fill:#009ee0;fill-opacity:1;fill-rule:nonzero;stroke:none" />
      <path
         transform="translate(0,284.3623)"
         inkscape:connector-curvature="0"
         d="m 225.30066,122.92421 c -0.56491,9.87791 -0.91936,19.76228 -1.10929,29.65429 -0.18204,15.4688 0.35208,30.93395 0.79615,46.39406 0.15691,8.53513 0.62651,17.09402 0.0492,25.62282 -0.17927,2.45821 -0.60642,2.78912 -2.52867,4.1312 0,0 0.12422,-0.0982 0.12422,-0.0982 l 0,0 c -1.26533,1.43204 -2.84298,4.07206 -2.98129,0.54307 -0.16924,-8.44946 0.0295,-16.90672 -0.30471,-25.35465 -0.38614,-15.52879 -0.89105,-31.06261 -0.61394,-46.59788 0.27978,-10.17444 0.65697,-20.36879 2.0076,-30.46797 0,0 4.5607,-3.82674 4.5607,-3.82674 z"
         id="path3057"
         style="fill:#009ee0;fill-opacity:1;fill-rule:nonzero;stroke:none" />
      <path
         transform="translate(0,284.3623)"
         inkscape:connector-curvature="0"
         d="m 231.39187,190.66666 c -7.19206,-0.78914 -14.40405,-1.35811 -21.52499,-2.66743 -2.90328,-2.08959 -1.35453,-1.35166 -4.60354,-2.30129 0,0 0.10287,-0.12039 0.10287,-0.12039 l 0,0 c 5.1638,-0.9884 2.3879,-0.36369 8.3052,-1.97146 7.58004,-0.2116 15.11235,0.47258 22.62791,1.45007 0,0 -4.90745,5.6105 -4.90745,5.6105 z"
         id="path3059"
         style="fill:#009ee0;fill-opacity:1;fill-rule:nonzero;stroke:none" />
      <path
         transform="translate(0,284.3623)"
         inkscape:connector-curvature="0"
         d="m 260.67421,195.64299 c -2.67876,-2.61629 -5.90937,-4.95846 -9.64962,-5.73696 -0.76519,-0.15927 -1.55337,-0.17473 -2.33006,-0.26209 -0.76682,0.0755 -1.54825,0.0595 -2.30046,0.22648 -1.61681,0.35896 -2.99735,1.07013 -4.26102,2.14064 -0.67306,0.57017 -2.60246,2.32989 -1.82162,1.91953 3.71053,-1.94998 4.60482,-5.26018 2.34319,-8.1e-4 -2.2507,8.04821 -0.50753,14.26292 3.08431,21.53012 2.20696,3.41321 6.06928,9.11357 11.03254,7.36894 0.74613,-0.26227 1.35199,-0.82105 2.02799,-1.23158 -1.21941,1.11467 -2.07304,2.87859 -3.65823,3.34403 -0.99666,0.29264 1.11333,-1.76388 1.52482,-2.71763 1.97563,-4.57911 2.06118,-9.70033 2.19049,-14.59107 -0.009,-0.86869 -0.0902,-5.68717 0.0177,-6.65752 0.63738,-5.72805 0.89856,-1.15308 0.45722,-5.4361 0,0 0.11647,-0.10728 0.11647,-0.10728 l 0,0 c 0.37252,0.43051 0.67743,0.93043 1.11756,1.29154 0.5563,0.45642 1.38111,0.57666 1.83751,1.13298 0.99213,1.20932 1.33741,4.01058 1.60617,5.35042 0.41982,4.82707 0.51699,9.6495 -1.21583,14.27345 -0.37239,0.99371 -0.69838,2.05806 -1.38677,2.86568 -2.26028,2.65176 -4.91488,4.94031 -7.37232,7.41047 -0.76084,0.34415 -1.46883,0.84479 -2.28253,1.03246 -5.32459,1.22807 -9.20954,-4.30086 -11.64016,-8.0579 -0.5775,-1.17188 -1.23363,-2.30818 -1.73252,-3.51563 -2.44646,-5.9211 -3.18046,-12.44515 -1.57469,-18.66905 2.30397,-5.92987 0.69195,-2.78403 7.86555,-10.60627 2.34959,-2.56204 5.25335,-3.8813 8.74483,-3.65075 5.14147,1.04426 8.16361,3.14242 11.68131,6.98259 0,0 -4.42187,4.37131 -4.42187,4.37131 z"
         id="path3061"
         style="fill:#009ee0;fill-opacity:1;fill-rule:nonzero;stroke:none" />
      <path
         transform="translate(0,284.3623)"
         inkscape:connector-curvature="0"
         d="m 280.64617,182.63368 c 0.41719,6.63678 0.53256,13.28687 0.58866,19.93486 0.0381,6.57418 -0.25732,13.14333 -0.57135,19.70813 0.20539,1.54639 -0.48775,3.30743 -0.0445,4.8398 -1.8718,1.39502 -3.63525,2.94866 -5.61542,4.18507 -0.19887,0.12418 0.018,-0.46874 0.0377,-0.70237 0.0283,-0.33498 0.0666,-0.66908 0.10626,-1.0029 0.20791,-1.74825 0.48754,-3.48712 0.7537,-5.22709 0.82417,-5.89523 2.11158,-11.69227 3.81152,-17.39271 1.65815,-5.40438 4.06117,-10.50449 7.29307,-15.13577 2.70711,-3.35133 1.80981,-2.3456 7.06124,-7.38755 0.41244,-0.39599 1.41315,-1.0525 2.05024,-1.12229 0.94193,-0.10319 1.13954,0.34221 1.78992,0.91777 2.14381,4.61483 1.98908,10.37141 2.25466,15.3881 0.22211,4.62806 0.30317,9.26103 0.44878,13.89172 0.17004,2.81731 0.052,1.33872 -5.10265,4.8903 -0.28928,0.19932 0.31523,-0.62832 0.45534,-0.95047 0.26195,-0.60231 1.34578,-3.33744 1.49854,-3.72056 2.36678,-6.26141 5.02427,-12.39747 8.26359,-18.25721 1.31984,-2.22161 2.80932,-4.34073 4.67577,-6.13995 3.76313,-3.6276 5.07982,-5.99523 9.39302,-7.21407 5.22876,-0.20166 5.43974,5.90962 5.78094,9.76976 0.14494,8.21489 -0.88581,16.39327 -1.58331,24.566 -0.29688,3.53042 -0.51232,7.06602 -0.89276,10.58907 -0.10453,0.96799 -0.0629,1.96857 -0.34498,2.90043 -0.38345,1.26665 -1.0861,2.41374 -1.62914,3.62061 0,0 -0.12004,0.10328 -0.12004,0.10328 l 0,0 c -0.5954,-0.23433 -1.41592,-0.18117 -1.78621,-0.703 -0.45223,-0.63731 -0.27305,-1.5401 -0.3568,-2.31706 -0.35266,-3.27152 -0.19668,-6.5619 -0.0451,-9.83957 0.51367,-8.10779 1.5388,-16.19658 1.4726,-24.32935 -0.18039,-2.34397 -0.15483,-7.10746 -2.42788,-8.69243 -0.83398,-0.58152 -1.454,-0.36061 -2.38252,-0.28805 -3.48954,1.24777 -4.18012,3.29687 0.38339,-2.14286 0.49107,-0.58535 -1.12031,1.04222 -1.63117,1.61038 -1.54269,1.71572 -1.99445,2.55083 -3.30357,4.506 -3.29687,5.75158 -5.96198,11.80248 -8.16475,18.05676 -0.11706,0.3168 -6.48176,18.29446 -7.45209,8.51926 0.0334,-4.67234 -0.0822,-9.34428 -0.26787,-14.01277 -0.23375,-4.98601 -0.10938,-10.28925 -1.8617,-15.01635 -0.76545,-0.66201 -1.21255,-0.53829 -2.07823,0.0573 -0.35858,0.24672 -1.30464,1.14777 -1.01082,0.82663 8.33053,-9.10513 2.95105,-2.90457 2.26423,-2.10408 -3.3196,4.54219 -5.76803,9.59144 -7.43965,14.96933 -1.65589,5.57824 -2.85822,11.25737 -3.54349,17.04095 -0.22039,1.70474 -0.45972,3.40777 -0.65757,5.11534 -0.008,0.0656 -0.17451,1.62796 -0.17709,1.63054 -1.77715,1.77696 -3.74276,3.35488 -5.61414,5.03232 0.51562,-0.18882 0.51207,-4.46772 0.61964,-5.00208 0.37382,-6.59377 0.73499,-13.19167 0.73657,-19.79853 -0.0163,-6.66073 -0.0949,-13.32512 -0.47198,-19.97667 0,0 4.83734,-4.19399 4.83734,-4.19399 z"
         id="path3063"
         style="fill:#009ee0;fill-opacity:1;fill-rule:nonzero;stroke:none" />
      <path
         transform="translate(0,284.3623)"
         inkscape:connector-curvature="0"
         d="m 350.64278,203.13073 c 0.84388,-4.66761 0.18355,-8.87709 -2.1695,-12.97697 -3.68597,-4.22821 -6.28283,-3.00852 -9.95153,0.40542 0.96242,-0.79358 1.72396,-2.83101 2.88726,-2.38074 1.02382,0.39628 -1.13591,1.88396 -1.59858,2.87955 -0.51912,1.11707 -0.95967,2.27228 -1.34005,3.44388 -1.27728,3.93415 -1.71096,7.89967 -2.05953,11.99473 0.003,5.50708 -0.0982,11.69761 2.99452,16.50555 0.82854,0.51074 0.97177,0.88979 1.97646,0.39373 0.43538,-0.21497 1.49401,-1.23591 1.15299,-0.89026 -1.14232,1.15788 -2.14995,2.52872 -3.56343,3.33351 -0.74526,0.42432 1.00961,-1.3897 1.44603,-2.12793 0.50865,-0.86041 0.92292,-1.77322 1.38438,-2.65982 2.80541,-6.06613 4.31096,-12.60024 5.57953,-19.129 0.25178,-0.37575 0.86005,-6.40811 1.11081,-6.59646 1.7685,-1.32835 3.64438,-2.50738 5.46656,-3.76107 0.44621,5.27433 0.89136,10.53906 1.61141,15.78597 0.79677,6.00197 2.57782,11.79473 3.97887,17.66553 0.48168,1.88307 0.0382,3.26295 -0.73369,4.95171 0,0 -0.11257,0.11138 -0.11257,0.11138 l 0,0 c -1.97287,0.73985 -2.41727,0.98299 -3.77792,-0.83602 -2.6002,-5.40634 -3.67645,-11.36095 -4.65221,-17.24077 -0.73034,-5.24741 -1.25313,-10.51058 -1.54692,-15.80126 1.73074,-1.75125 3.42249,-3.54191 5.19223,-5.25374 0.0972,-0.094 -0.1167,0.24585 -0.15036,0.37684 -0.0703,0.27355 -0.1085,0.55435 -0.16026,0.832 -0.34104,1.82939 -0.64203,3.66611 -1.01649,5.48928 -1.31079,6.54315 -2.76796,13.1058 -5.44118,19.25072 -2.58457,5.39541 -3.52826,6.32118 -8.87891,11.19489 -1.3026,1.1865 -2.79528,0.83003 -4.00083,-0.15493 -3.36646,-4.93732 -3.07961,-11.34972 -3.05134,-17.08042 0.45252,-5.38357 1.11387,-10.70092 3.29554,-15.70751 0.4456,-1.02257 0.84179,-2.10068 1.5388,-2.97153 1.97215,-2.46399 4.27599,-4.6431 6.41398,-6.96465 0.63666,-0.50794 1.21416,-1.10053 1.90998,-1.52383 3.26505,-1.98627 6.47984,-0.6656 8.58102,2.21609 2.31243,4.12387 3.27193,8.58101 2.47963,13.30048 0,0 -4.7947,3.92565 -4.7947,3.92565 z"
         id="path3065"
         style="fill:#009ee0;fill-opacity:1;fill-rule:nonzero;stroke:none" />
      <path
         transform="translate(0,284.3623)"
         inkscape:connector-curvature="0"
         d="m 373.93496,142.9534 c -0.045,7.08063 -0.0533,14.16031 0.0469,21.24082 0.22837,12.96371 0.84456,25.91586 1.35124,38.87049 0.0666,7.63211 1.00169,15.34861 0.0595,22.95737 -0.46192,1.8934 -0.0774,1.02958 -1.12623,2.60349 0,0 -1.1245,0.97856 -1.1245,0.97856 l 0,0 c -1.14189,0.31923 -0.70262,0.49309 -1.32473,-0.50375 -0.61531,-2.32899 -0.79024,-4.62534 -0.97936,-7.02926 -0.37654,-4.78611 -0.65311,-9.57884 -0.88121,-14.37422 -0.61034,-12.93517 -1.1471,-25.87563 -1.43966,-38.82228 -0.0951,-7.21783 -0.14072,-14.44159 0.39288,-21.64605 0,0 5.02513,-4.27517 5.02513,-4.27517 z"
         id="path3067"
         style="fill:#009ee0;fill-opacity:1;fill-rule:nonzero;stroke:none" />
      <path
         transform="translate(0,284.3623)"
         inkscape:connector-curvature="0"
         d="m 378.87029,195.8894 c -4.92392,-0.96804 -9.96504,-0.80943 -14.9564,-0.80496 -2.12083,-0.69851 -1.17415,-0.27033 -2.87276,-1.20962 0,0 0.0999,-0.12286 0.0999,-0.12286 l 0,0 c 4.21185,-2.30692 2.03626,-1.24544 6.53244,-3.17283 5.36571,-1.11342 10.77931,-1.44512 16.18365,-0.28339 0,0 -4.98683,5.59366 -4.98683,5.59366 z"
         id="path3069"
         style="fill:#009ee0;fill-opacity:1;fill-rule:nonzero;stroke:none" />
      <path
         transform="translate(0,284.3623)"
         inkscape:connector-curvature="0"
         d="m 396.68808,185.35808 c -0.2118,6.84689 -0.34425,13.69526 -0.41611,20.54494 -0.0662,6.2965 -0.0939,12.59302 0.0546,18.88841 -0.22634,1.97089 0.63216,4.5054 -0.2914,6.40078 -0.17823,0.36575 -0.49972,0.64221 -0.74958,0.96332 0,0 -2.54362,2.45126 -2.54362,2.45126 l 0,0 c -0.36557,0.15216 -0.70095,0.46941 -1.09672,0.45647 -0.96071,-0.0314 -1.02726,-4.79729 -1.05106,-5.3528 -0.14539,-6.33286 -0.0802,-12.6671 0.0317,-19.00017 0.13913,-6.95433 0.27624,-13.91283 0.74064,-20.85466 0,0 5.32149,-4.49755 5.32149,-4.49755 z"
         id="path3071"
         style="fill:#009ee0;fill-opacity:1;fill-rule:nonzero;stroke:none" />
      <path
         transform="translate(0,284.3623)"
         inkscape:connector-curvature="0"
         d="m 395.19886,178.00741 c -3.49734,1.24129 -5.9144,0.73824 -8.15514,-2.23895 -1.53218,-2.86158 -0.67273,-5.53446 1.1658,-7.96681 5.19584,-5.30613 6.80315,-8.76739 13.51399,-6.03043 2.8519,1.4836 4.92583,3.80001 6.09493,6.76954 0.73299,2.35553 -0.10355,4.31386 -1.54114,6.16211 2.93252,-9.69339 -5.69639,8.91566 -7.82683,6.42151 -0.54762,-0.64111 0.19689,-2.02388 0.31831,-2.42112 0,0 0.10651,-0.11718 0.10651,-0.11718 l 0,0 c 1.37625,-0.86411 2.81892,-1.67558 4.16277,-2.59267 2.16237,-1.47568 5.55459,-5.30703 -2.7775,3.16299 1.43283,-1.58844 2.53201,-3.28674 2.01501,-5.51822 -1.0464,-2.79562 -3.00216,-4.94892 -5.68081,-6.30681 -1.82981,-0.72302 -3.55322,-1.17943 -5.43987,-0.30041 -0.39686,0.1849 -1.40058,1.02273 -1.11936,0.68717 1.31103,-1.56435 2.82882,-2.94309 4.24323,-4.41464 -1.86458,2.06295 -2.98483,4.38617 -1.71386,7.11059 1.97307,2.78258 4.26275,2.81099 7.30511,1.61198 0,0 -4.67115,5.98135 -4.67115,5.98135 z"
         id="path3073"
         style="fill:#009ee0;fill-opacity:1;fill-rule:nonzero;stroke:none" />
      <path
         transform="translate(0,284.3623)"
         inkscape:connector-curvature="0"
         d="m 419.10816,190.02039 c -2.47616,-2.94589 -5.62543,-4.57367 -9.46217,-4.52147 -1.19381,0.28358 -1.683,0.27961 -2.70663,0.98175 -0.36681,0.25162 -1.31324,1.20051 -0.98608,0.89912 1.20926,-1.11397 2.27245,-2.4129 3.63239,-3.33691 0.34648,-0.23541 -0.35894,0.76465 -0.44873,1.17379 -0.0957,0.43607 -0.068,0.8903 -0.10195,1.33545 0.70605,4.42117 4.55579,7.17477 7.84509,9.77421 4.1958,3.23496 8.63665,6.42088 11.7169,10.81702 0.55387,0.7905 0.99811,1.6524 1.49717,2.4786 3.8004,8.86499 -1.34829,11.48105 -7.77642,17.49547 -3.76393,1.85134 -8.28641,2.60293 -12.26407,0.85714 -0.70883,-0.31111 -1.33083,-0.79108 -1.99625,-1.18662 -1.13673,-1.09056 -2.45617,-2.00356 -2.73317,-3.72992 -0.17259,-1.07568 0.25372,-2.17281 0.21175,-3.26144 -0.0317,-0.82116 -0.28739,-1.61822 -0.43109,-2.42733 0,0 0.11693,-0.10678 0.11693,-0.10678 l 0,0 c 0.34693,0.61515 0.46629,1.43468 1.04077,1.84547 0.68061,0.48668 1.66323,0.29678 2.42844,0.63523 1.3478,0.59614 2.27798,1.94085 3.72488,2.38176 4.95194,1.86009 9.41426,2.08896 14.12823,-0.67038 -1.01502,1.15761 -2.02352,2.32099 -3.04507,3.47284 -0.50499,0.56941 1.0771,-1.08956 1.49533,-1.72542 1.83372,-2.78797 1.41742,-5.97662 0.16444,-8.88809 -0.468,-0.81429 -0.88004,-1.66341 -1.404,-2.44287 -2.97332,-4.42324 -7.32248,-7.61128 -11.42135,-10.90252 -3.3875,-2.81791 -7.24187,-5.74327 -8.13852,-10.31205 -0.007,-4.22673 1.61787,-4.40768 5.48667,-8.29232 1.04507,-1.04934 2.53379,-1.34127 3.93564,-1.49692 3.93745,0.20017 7.15568,2.01779 9.70524,5.03006 0,0 -4.21437,4.12313 -4.21437,4.12313 z"
         id="path3075"
         style="fill:#009ee0;fill-opacity:1;fill-rule:nonzero;stroke:none" />
      <path
         transform="translate(0,284.3623)"
         inkscape:connector-curvature="0"
         d="m 456.79938,185.489 c -4.38227,-1.87505 -8.30032,-2.45336 -12.93003,-1.24384 0.67497,-1.42561 -4.5738,3.23253 -3.46157,2.38139 1.09337,-0.8367 1.80791,-2.49487 3.1771,-2.63927 0.8605,-0.0908 -0.73872,1.57368 -0.97253,2.40677 -0.71655,2.55305 -0.61196,4.11239 -0.72803,6.79757 0.18858,8.46579 2.05704,16.76397 4.98441,24.67809 1.47119,3.29585 3.33954,7.31608 7.48456,7.49751 0.64304,0.0282 1.2834,-0.1003 1.9251,-0.15045 2.18205,0.1774 6.05579,-3.01797 7.80484,-2.48911 0,0 -0.0948,0.12681 -0.0948,0.12681 l 0,0 c -3.53077,3.45057 -7.26358,6.52948 -12.18735,7.70875 -0.75508,0.0858 -1.50541,0.27053 -2.26523,0.25729 -4.5009,-0.0784 -6.72923,-4.20817 -8.23098,-7.85702 -2.84427,-8.16805 -4.53561,-16.70142 -4.616,-25.37545 0.11319,-2.34582 0.18564,-7.66554 1.71121,-9.69424 1.73153,-2.30258 3.7979,-4.33699 5.81196,-6.39699 1.2268,-1.25478 1.96621,-1.36454 3.53703,-1.99669 4.44223,-0.77427 8.79098,-0.029 12.8817,1.88474 0,0 -3.83135,4.10414 -3.83135,4.10414 z"
         id="path3077"
         style="fill:#009ee0;fill-opacity:1;fill-rule:nonzero;stroke:none" />
      <path
         transform="translate(0,284.3623)"
         inkscape:connector-curvature="0"
         d="m 475.24412,147.3593 c -0.84471,8.35762 -1.50153,16.7308 -2.00577,25.11534 -0.69202,11.99035 -0.92272,23.99931 -1.05472,36.00665 0.23761,4.54178 -0.41121,9.18343 0.14463,13.71375 -1.38191,-1.96341 0.34227,0.40831 -5.27259,4.21117 -0.31194,0.21127 0.26614,-0.70519 0.3837,-1.06314 0.74436,-2.26644 1.38239,-4.57352 2.05694,-6.86099 2.0352,-7.22018 4.30896,-14.36529 7.28598,-21.25502 3.0762,-6.0941 7.58626,-12.21347 13.95161,-15.10626 4.75088,-1.23202 5.65674,1.6144 6.4219,5.67727 0.37757,8.3404 -1.15175,16.64054 -2.38716,24.86034 -0.68545,5.28356 -1.87606,10.68492 -0.83086,15.99374 0.0358,1.33642 1.40267,2.10458 1.86241,3.18098 0.21766,0.50959 -0.0103,1.19039 0.32728,1.62984 0.30381,0.39553 0.91734,0.39177 1.376,0.58766 0,0 -0.10288,0.12038 -0.10288,0.12038 l 0,0 c -0.80415,0.19134 -1.62067,0.33662 -2.41244,0.57404 -3.10646,0.93151 -4.52233,2.0866 -6.62802,-1.09446 -1.52908,-5.31065 0.12609,-10.94918 0.72517,-16.28581 1.29083,-8.25367 2.85792,-16.54572 2.79926,-24.92783 -0.39745,-3.6227 -0.78307,-6.66738 -5.18372,-5.13822 -1.83025,0.94545 -6.61915,4.72579 -0.084,-1.17309 0.62191,-0.56135 -1.13626,1.23505 -1.64093,1.90377 -1.49303,1.97837 -1.91168,2.97871 -3.10385,5.20197 -2.99385,6.7364 -5.1511,13.7665 -6.99034,20.90097 -0.34037,1.27069 -3.72633,17.42696 -8.00558,12.7639 0.0737,-4.72233 0.30804,-9.44317 0.31767,-14.16727 0.26103,-12.11132 0.60223,-24.22516 1.37187,-36.31639 0.61434,-8.57158 1.26929,-17.15066 2.5859,-25.64897 0,0 4.09257,-3.40432 4.09257,-3.40432 z"
         id="path3079"
         style="fill:#009ee0;fill-opacity:1;fill-rule:nonzero;stroke:none" />
      <path
         transform="translate(0,284.3623)"
         inkscape:connector-curvature="0"
         d="m 513.49005,204.68665 c 4.83443,0.42156 9.54715,-0.36935 14.13681,-1.83336 2.40498,-0.94882 4.69221,-2.19619 6.65794,-3.89181 0.59842,-0.51618 2.29632,-2.16872 1.68515,-1.6677 -3.44035,2.82028 -4.18308,4.55388 -2.31202,1.25193 1.64929,-4.64863 0.22453,-7.72726 -3.15348,-11.02064 -5.20356,-3.48189 -9.16233,-2.30198 -14.275,0.58621 -0.8042,0.66093 -2.99577,2.84507 -2.41261,1.9828 0.67915,-1.00418 1.64346,-2.9984 2.71111,-2.42417 1.00729,0.54177 -1.33062,1.86798 -1.87292,2.87499 -1.9245,3.57361 -2.57157,7.28505 -3.16525,11.242 -0.34335,6.2624 -0.038,13.02453 3.15451,18.62271 0.49002,0.8593 1.14011,1.61685 1.71016,2.42528 4.77244,4.86273 9.99569,4.04471 16.03296,2.43855 3.12633,-1.18456 6.15434,-2.11316 9.50311,-2.00214 0,0 -0.0985,0.12396 -0.0985,0.12396 l 0,0 c -4.31834,2.50387 -8.58043,5.16811 -13.34533,6.76552 -6.54292,2.04769 -12.23827,3.32186 -17.57733,-2.02609 -0.59634,-0.8478 -1.27732,-1.64198 -1.789,-2.54341 -3.27422,-5.7682 -3.51474,-12.72272 -3.1889,-19.16248 0.20083,-1.39497 0.32137,-2.80388 0.6025,-4.18491 1.69745,-8.33859 6.87042,-14.74416 13.92022,-19.54825 5.50628,-2.76443 9.42328,-3.4805 14.7676,0.14171 3.41172,3.3463 5.30168,6.78166 3.77728,11.61196 -2.1848,4.3608 -0.67577,1.78606 -6.94273,8.25912 -2.40979,2.48903 -5.4222,4.23778 -8.64753,5.44775 -4.65276,1.42638 -9.43399,2.19569 -14.31016,1.62341 0,0 4.43145,-5.09294 4.43145,-5.09294 z"
         id="path3081"
         style="fill:#009ee0;fill-opacity:1;fill-rule:nonzero;stroke:none" />
    </g>
    <g
       id="g3200"
       transform="matrix(1.1210921,0,0,1.1210921,-51.311225,-93.139968)">
      <path
         inkscape:connector-curvature="0"
         d="m 222.98732,545.97301 c 0.0698,11.38616 0.39657,22.76435 0.87365,34.14027 0.77226,17.1941 2.22113,34.34742 3.77338,51.48559 0.65209,8.22146 1.68082,16.41585 2.1686,24.6504 0.10227,3.55394 -0.0776,3.00351 -5.39689,5.68559 -0.37353,0.18834 0.21734,-0.80917 0.36297,-1.20133 0.19946,-0.53711 0.44721,-1.05503 0.67082,-1.58254 1.60781,-2.82977 0.92056,-1.4237 2.09875,-4.19993 0,0 0.12222,-0.10069 0.12222,-0.10069 l 0,0 c 0.38878,1.34975 -0.006,0.85591 1.09649,1.54781 0.001,0.002 0.65412,1.23407 0.56063,1.33893 -6.50722,7.29796 -5.22423,7.10921 -5.29749,3.50823 -0.45504,-8.27376 -1.35244,-16.51816 -1.98566,-24.77861 -1.46163,-17.21854 -2.83346,-34.44937 -3.55912,-51.71755 -0.41641,-11.54112 -0.62508,-23.08539 -0.32544,-34.63305 0,0 4.83709,-4.14312 4.83709,-4.14312 z"
         id="path3083"
         style="fill:#009ee0;fill-opacity:1;fill-rule:nonzero;stroke:none" />
      <path
         inkscape:connector-curvature="0"
         d="m 244.02667,610.80153 c 3.09768,5.61654 4.48534,11.95568 5.89486,18.15601 0.92242,3.93002 1.44486,7.94271 2.32566,11.88014 0.80921,2.11822 0.56425,1.3583 -5.24916,3.8753 -0.47701,0.20653 0.13783,-1.03046 0.20036,-1.54649 0.30514,-2.51802 0.58747,-5.03734 0.90827,-7.55363 0.84592,-7.16003 2.34065,-14.18698 4.85381,-20.94535 1.3076,-3.07198 2.967,-6.02557 5.40128,-8.351 6.34718,-6.06334 3.63255,-4.84852 7.62201,-6.34273 0.44572,0.01 0.90602,-0.0835 1.33715,0.0301 3.4681,0.91348 4.50146,7.30909 5.16311,10.08943 1.60242,8.60199 2.54246,17.30761 3.86597,25.9546 0.48012,5.05366 2.4236,9.91794 2.70859,14.98558 -0.41951,1.75102 -0.0712,0.84874 -1.18341,2.64921 0,0 -0.10374,0.11964 -0.10374,0.11964 l 0,0 c -2.34793,1.59553 -1.20137,1.36658 -3.22943,1.36892 -1.14205,-1.3461 -1.40867,-2.883 -1.81066,-4.59934 -0.7523,-3.21204 -1.30331,-6.46917 -1.83317,-9.72346 -1.31167,-8.67086 -2.17707,-17.40477 -3.67957,-26.0464 -0.47823,-2.11852 -1.48515,-8.99941 -4.42125,-9.46936 -0.3663,-0.0586 -0.7387,0.0692 -1.10805,0.10377 -2.90562,1.42796 -1.11865,0.7342 2.28346,-3.20366 0.43888,-0.508 -0.99484,0.90517 -1.44245,1.4055 -1.79384,2.00511 -3.13015,4.35258 -4.23002,6.79471 -2.594,6.64986 -4.15694,13.60063 -4.83836,20.71152 -0.16889,1.63547 -0.38834,3.7235 -0.54605,5.38286 -0.0131,0.13749 -0.31273,3.53803 -0.33064,3.56105 -1.66638,2.14229 -3.6763,3.99798 -5.62798,5.88401 -0.0793,0.0766 -0.1085,-0.19204 -0.16274,-0.28807 -0.71889,-4.02407 -1.11885,-8.10971 -2.06247,-12.0962 -1.32402,-6.20163 -2.71309,-12.48378 -5.47838,-18.22981 0,0 4.773,-4.55684 4.773,-4.55684 z"
         id="path3085"
         style="fill:#009ee0;fill-opacity:1;fill-rule:nonzero;stroke:none" />
      <path
         inkscape:connector-curvature="0"
         d="m 309.34435,611.08723 c -3.84255,-2.81526 -8.04553,-5.07506 -12.54622,-6.62297 -3.85344,-1.13409 -6.59105,-0.68211 -9.81588,1.61232 -0.42009,0.40197 -1.68538,1.60254 -1.26026,1.2059 1.13814,-1.06191 2.11964,-2.31562 3.3994,-3.20176 0.52613,-0.36432 -0.75007,1.03946 -1.07385,1.59146 -1.07488,1.83258 -1.63536,3.73329 -2.14116,5.77696 -0.97435,5.33845 0.87232,8.99827 4.1168,13.08454 5.05098,5.26045 11.56391,8.72077 17.55819,12.76003 3.41335,2.50469 7.77166,5.96696 6.6323,10.82018 -0.19912,0.84819 -0.66114,1.6122 -0.99171,2.4183 -6.41067,8.67397 -12.03453,12.46068 -22.16702,14.10536 -2.23849,0.008 -5.76512,0.50237 -7.29944,-1.78315 -0.44717,-0.66609 -0.41838,-1.54975 -0.66641,-2.31272 -0.22021,-0.6774 -0.4916,-1.33709 -0.7374,-2.00564 0,0 0.1139,-0.11 0.1139,-0.11 l 0,0 c 0.50338,0.40009 0.89581,1.01036 1.51014,1.20027 0.84505,0.26124 1.76912,0.0346 2.6521,0.0864 2.83757,0.16639 5.66089,0.5804 8.49207,-0.0215 3.54761,-0.78295 6.88435,-1.68741 10.09744,-3.45537 1.03393,-0.5689 2.14208,-2.73495 2.9829,-1.9069 0.8218,0.80933 -1.49894,1.75345 -2.24883,2.62983 -0.63613,0.74344 1.27172,-1.48735 1.90758,-2.23102 0.38533,-0.75559 0.88703,-1.46237 1.15599,-2.26676 1.56115,-4.66912 -2.64249,-8.05668 -5.95086,-10.47288 -6.05045,-4.07823 -12.60392,-7.58552 -17.72823,-12.8681 -3.39695,-4.18377 -5.3983,-7.99521 -4.51016,-13.52873 1.4332,-6.56551 4.46634,-10.38629 10.1032,-14.72214 3.36991,-2.05697 6.19002,-2.18309 9.92016,-0.81791 4.41939,1.78902 8.50929,4.19016 12.14285,7.2987 0,0 -3.64759,3.73723 -3.64759,3.73723 z"
         id="path3099"
         style="fill:#009ee0;fill-opacity:1;fill-rule:nonzero;stroke:none" />
      <path
         inkscape:connector-curvature="0"
         d="m 331.11665,563.21308 c 0.55881,8.22397 1.00429,16.45264 1.66708,24.67006 1.04301,12.05894 2.51869,24.07437 3.91298,36.09613 0.86884,7.29041 1.64309,14.59139 2.42118,21.89187 0.0879,1.23435 0.31049,2.47117 0.28804,3.71342 -0.005,0.28236 0.11889,0.78556 -0.15967,0.83204 -0.19792,0.033 -0.38552,-0.11145 -0.57829,-0.16718 -5.39796,5.14148 -2.27542,2.63589 -1.43899,0.10177 0,0 0.12194,-0.10103 0.12194,-0.10103 l 0,0 c 0.0293,0.2468 -0.12032,0.60455 0.0878,0.7404 0.25162,0.16424 0.59739,-0.0654 0.89609,-0.0982 -1.08191,1.32002 -2.16381,2.64004 -3.24571,3.96006 -0.2972,-0.0502 -0.69807,0.0211 -0.87658,-0.22178 -0.75782,-1.03094 -0.19742,-2.8264 -0.62605,-3.93688 -0.71988,-7.3433 -1.42419,-14.68849 -2.26303,-22.01947 -1.34453,-12.15962 -2.71958,-24.32304 -3.45394,-36.53852 -0.4253,-8.53385 -0.67855,-17.07373 -0.58211,-25.61948 0,0 3.82926,-3.30324 3.82926,-3.30324 z"
         id="path3101"
         style="fill:#009ee0;fill-opacity:1;fill-rule:nonzero;stroke:none" />
      <path
         inkscape:connector-curvature="0"
         d="m 346.62623,618.18514 c -4.93213,-3.75319 -10.30381,-6.72376 -16.0767,-8.94641 -0.98998,-0.29388 -1.96927,-0.62648 -2.96993,-0.88163 -1.64641,-0.41981 -3.43935,-0.71838 -5.13131,-0.91114 -1.57312,-0.17922 -2.94772,-0.11322 -4.38955,-0.78372 0.005,-0.36002 0.0106,-0.72004 0.016,-1.08007 0,0 0.10015,-0.12266 0.10015,-0.12266 l 0,0 c 0.72528,-0.52221 1.45055,-1.04442 2.17583,-1.56664 0.66371,-0.28678 1.30336,-0.63738 1.99114,-0.86034 4.25845,-1.3805 8.91414,-0.25448 13.05582,0.93466 5.82236,2.23768 11.33085,5.17861 16.20622,9.10718 0,0 -4.97763,5.11077 -4.97763,5.11077 z"
         id="path3103"
         style="fill:#009ee0;fill-opacity:1;fill-rule:nonzero;stroke:none" />
      <path
         inkscape:connector-curvature="0"
         d="m 390.27421,621.36454 c -1.19321,-3.42664 -2.59373,-6.77596 -4.24219,-10.0078 -1.51673,-3.1539 -4.01075,-5.26635 -7.00593,-6.94144 -4.34709,-1.96852 -8.20428,-1.70573 -12.51855,0.10107 0.85601,-1.10242 -4.94226,3.66718 -3.57439,2.94947 1.09412,-0.57408 1.66123,-2.4719 2.8879,-2.32377 0.92694,0.11193 -0.88104,1.65244 -1.20948,2.52645 -0.95999,2.5546 -0.94609,3.59937 -1.329,6.32808 -0.55051,7.27556 1.30763,14.2267 4.4678,20.70995 1.40557,2.19874 3.57738,6.71231 6.97381,5.90598 0.4402,-0.10451 0.82143,-0.37952 1.23215,-0.56928 0.39312,-0.33916 1.54913,-1.38195 1.17937,-1.01747 -1.10391,1.08812 -2.1107,2.30522 -3.38341,3.18999 -0.53544,0.37222 0.77092,-1.05385 1.111,-1.61027 1.19656,-1.95771 1.96939,-4.06801 2.74322,-6.21469 1.68661,-5.14061 2.31925,-10.52962 2.87955,-15.88566 0.1573,-0.43431 0.2898,-5.93957 0.52817,-6.08912 1.59499,-1.00066 3.26731,-1.87242 4.90096,-2.80863 0.37345,6.46268 1.18771,12.87027 2.33702,19.23751 1.37251,6.9774 3.50221,13.77981 6.41071,20.26548 1.01479,1.57323 0.49466,2.52374 2.06519,3.45745 0,0 -0.10069,0.12222 -0.10069,0.12222 l 0,0 c -2.19516,1.01969 -3.92535,1.96628 -6.14937,0.41344 -0.49738,-0.61136 -1.07166,-1.16749 -1.49213,-1.8341 -3.20425,-5.08006 -4.2159,-12.32668 -5.67553,-18.04973 -1.14802,-6.44016 -2.0802,-12.91688 -2.14986,-19.47295 8.50089,-9.37721 4.72951,-6.75964 4.35442,-4.14643 -0.24566,1.71148 -0.31715,3.44791 -0.54921,5.16097 -0.58301,5.29563 -1.154,10.62409 -2.54622,15.78099 -1.86572,6.02712 -4.77737,11.15817 -10.52172,14.60785 -0.47781,0.13804 -0.93834,0.36675 -1.43344,0.41413 -3.68007,0.35221 -5.90921,-3.82736 -7.46925,-6.41826 -3.06335,-6.66537 -4.99254,-13.72596 -4.53827,-21.13459 0.31686,-2.63992 0.64084,-6.85676 2.3393,-9.08342 1.77138,-2.32225 3.84379,-4.40015 5.83989,-6.53234 1.51362,-1.61681 1.87278,-1.65498 3.73517,-2.75959 4.46955,-1.62072 8.42348,-1.70242 12.77084,0.43602 3.06678,1.76962 5.66128,3.98006 7.21032,7.24229 1.58074,3.39999 2.74224,6.96292 3.75141,10.57135 0,0 -3.82956,3.47885 -3.82956,3.47885 z"
         id="path3107"
         style="fill:#009ee0;fill-opacity:1;fill-rule:nonzero;stroke:none" />
      <path
         inkscape:connector-curvature="0"
         d="m 412.41086,573.84285 c -1.2761,9.81713 -2.07931,19.68315 -2.72961,29.55855 -0.74434,12.62243 -0.77235,25.27111 -0.62611,37.90985 -0.005,5.80008 0.46393,11.59672 0.38272,17.39677 -0.0219,0.79403 0.11268,1.17008 -0.52166,1.55578 -0.64408,0.39161 -1.31541,1.68622 -1.90569,1.21743 -0.56829,-0.45132 0.67366,-1.28559 1.01049,-1.92838 0,0 0.12319,-0.0995 0.12319,-0.0995 l 0,0 c 0.0646,0.32431 0.35984,0.68693 0.19383,0.97292 -0.42795,0.73727 -3.16078,5.47539 -3.61075,2.34765 -0.718,-5.6896 -0.46075,-11.46123 -0.67872,-17.1783 -0.0975,-12.69897 -0.0436,-25.4071 0.75769,-38.08644 0.67359,-9.96198 1.42763,-19.93489 2.95344,-29.8092 0,0 4.65118,-3.85713 4.65118,-3.85713 z"
         id="path3109"
         style="fill:#009ee0;fill-opacity:1;fill-rule:nonzero;stroke:none" />
      <path
         inkscape:connector-curvature="0"
         d="m 424.09952,571.35377 c -0.45829,8.36484 -1.28386,16.7048 -1.93674,25.05595 -1.01579,12.80253 -1.6991,25.62546 -1.96087,38.4651 -0.53624,7.27036 1.04274,14.59039 0.28757,21.83276 -0.39941,0.86451 -0.79881,1.72903 -1.19822,2.59354 0,0 -0.11824,0.10534 -0.11824,0.10534 l 0,0 c -0.58272,10e-4 -1.16545,0.003 -1.74818,0.004 -0.27884,-0.4635 -0.6433,-0.88528 -0.83653,-1.39051 -0.52295,-1.36731 -0.82801,-3.97331 -0.9577,-5.29909 -0.44241,-4.52225 -0.43693,-9.07561 -0.40599,-13.61356 0.29153,-12.89414 0.96158,-25.7787 2.09059,-38.62803 0.78842,-8.58846 1.58717,-17.17835 2.73751,-25.72763 0,0 4.0468,-3.39793 4.0468,-3.39793 z"
         id="path3111"
         style="fill:#009ee0;fill-opacity:1;fill-rule:nonzero;stroke:none" />
      <path
         inkscape:connector-curvature="0"
         d="m 449.53585,628.25434 c -0.17002,-4.74574 -2.17982,-9.02194 -4.67372,-12.96239 -1.66621,-2.10791 -4.30481,-5.28524 -7.43735,-4.26277 -0.52686,0.17197 -0.97463,0.52791 -1.46195,0.79187 -0.48066,0.48418 -2.02178,1.81213 -1.44198,1.45255 1.08751,-0.67447 1.71885,-2.57881 2.98748,-2.41105 0.97343,0.12872 -0.93791,1.7285 -1.32499,2.63089 -1.41255,3.29302 -2.07313,6.7003 -2.69455,10.20527 -0.42683,4.90272 -0.7815,10.39128 1.56296,14.93058 0.32404,0.62739 0.77996,1.17734 1.16994,1.76601 3.51432,3.42336 6.85255,2.21 10.47081,-0.27833 0.59452,-0.57585 2.44166,-2.22951 1.78356,-1.72755 -1.09633,0.83621 -1.74858,2.48007 -3.10373,2.73449 -0.96946,0.18202 1.13047,-1.61832 1.64408,-2.46045 1.63813,-2.6859 2.87033,-5.55657 4.10908,-8.4385 1.87638,-4.55126 3.43366,-9.22249 5.0325,-13.87554 1.05494,-3.20484 0.0235,-2.50915 5.59243,-5.22993 0.35796,-0.17488 -0.17064,0.77873 -0.23387,1.17207 -0.0951,0.59138 -0.16051,1.18713 -0.24077,1.7807 -0.64493,6.17815 0.79729,12.18466 2.76751,17.98825 1.61838,4.76847 4.66849,8.5845 8.0644,12.17877 1.01572,1.56578 0.67917,0.7153 1.01012,2.55127 0,0 -0.10445,0.11902 -0.10445,0.11902 l 0,0 c -3.09564,1.29011 -1.55797,0.93689 -4.5777,1.20313 -0.64081,-0.18056 -1.31817,-0.2622 -1.92243,-0.5417 -4.15485,-1.9218 -6.0412,-6.83755 -7.73706,-10.70758 -1.98694,-5.95087 -3.40318,-12.11814 -2.73743,-18.43689 0.0255,-0.19427 0.34442,-2.90754 0.48511,-3.05435 7.5264,-7.85379 5.81124,-6.21474 4.75421,-3.11321 -1.56928,4.66167 -3.20474,9.30279 -4.97819,13.89101 -3.35549,8.17976 -6.42403,13.79411 -13.88176,19.59869 -4.25974,2.61922 -7.50161,3.39009 -11.37069,-0.39042 -0.40934,-0.63945 -0.89536,-1.23586 -1.22801,-1.91836 -2.35667,-4.83522 -1.6852,-10.57544 -1.20913,-15.71696 1.58888,-9.42038 3.07112,-14.48303 11.27668,-20.91776 0.54875,-0.21093 1.06836,-0.52477 1.64625,-0.6328 3.38206,-0.63226 5.88077,2.70713 7.62117,5.01731 2.52609,4.08246 4.54083,8.48281 4.72189,13.36513 0,0 -4.34042,3.69953 -4.34042,3.69953 z"
         id="path3113"
         style="fill:#009ee0;fill-opacity:1;fill-rule:nonzero;stroke:none" />
      <path
         inkscape:connector-curvature="0"
         d="m 491.2964,565.59064 c -0.82856,8.70367 -1.05734,17.44218 -1.0903,26.17996 -0.0513,10.41197 0.90712,20.75731 3.32937,30.88207 1.73609,6.68025 5.09083,12.65745 9.0414,18.24886 0.65529,1.20069 4.25815,4.67318 3.69143,6.22561 -0.14068,0.38538 -0.44993,0.68614 -0.67489,1.02921 -0.0613,0.0614 -0.12253,0.12276 -0.1838,0.18414 0,0 0.12716,-0.0944 0.12716,-0.0944 l 0,0 c -0.31823,0.37654 -0.63646,0.75308 -0.95469,1.12962 -0.52123,0.38623 -0.97954,0.87651 -1.56369,1.15867 -2.33897,1.12983 -4.60859,-3.33661 -5.72925,-4.52343 -3.99381,-5.6803 -7.39243,-11.75325 -9.14817,-18.52912 -2.41004,-10.23641 -3.3067,-20.69708 -3.20816,-31.21256 0.0657,-8.8322 0.3677,-17.66783 1.32475,-26.45428 0,0 5.03884,-4.22438 5.03884,-4.22438 z"
         id="path3115"
         style="fill:#009ee0;fill-opacity:1;fill-rule:nonzero;stroke:none" />
      <path
         inkscape:connector-curvature="0"
         d="m 506.00915,611.57683 c -5.93386,-0.4249 -11.85724,-0.98479 -17.79183,-1.4111 -5.28011,-0.41608 -10.65481,-0.45985 -15.77325,-1.94847 -1.49727,-0.61463 -1.40571,-1.51872 -1.32543,-2.91959 0,0 0.10612,-0.11753 0.10612,-0.11753 l 0,0 c 1.69401,-0.7639 3.34227,-1.63796 5.26359,-1.56628 5.54851,0.0981 11.08307,0.53808 16.61816,0.91033 5.80388,0.42242 11.64942,0.77646 17.35397,1.9878 0,0 -4.45133,5.06484 -4.45133,5.06484 z"
         id="path3117"
         style="fill:#009ee0;fill-opacity:1;fill-rule:nonzero;stroke:none" />
      <path
         inkscape:connector-curvature="0"
         d="m 525.32665,600.93661 c -0.0579,6.2843 -0.1216,12.56092 0.12303,18.84224 0.25292,6.94824 1.73559,13.67417 4.38741,20.08084 0.54857,1.77029 2.12707,3.52451 2.10508,5.47994 -0.45751,1.98062 -0.43182,1.15596 -0.37561,2.44652 0,0 -0.10803,0.11578 -0.10803,0.11578 l 0,0 c -0.55697,0.13134 -2.44791,0.59354 -2.73489,0.55522 -1.90186,-0.25399 -2.7819,-2.95868 -3.58433,-4.25445 -2.70038,-6.49675 -4.11573,-13.34556 -4.37769,-20.38768 -0.25392,-6.307 -0.19236,-12.61214 -0.0587,-18.92193 0,0 4.62373,-3.95648 4.62373,-3.95648 z"
         id="path3119"
         style="fill:#009ee0;fill-opacity:1;fill-rule:nonzero;stroke:none" />
      <path
         inkscape:connector-curvature="0"
         d="m 513.40942,594.20403 c -1.27103,-3.37635 -1.76724,-6.8354 -0.71712,-10.3115 1.97379,-3.49181 5.66461,-8.21447 10.25901,-7.41405 0.53207,0.0927 1.03219,0.31834 1.54829,0.47751 3.92797,2.14998 4.87608,6.30899 4.87492,10.46761 -0.27252,2.71318 -1.23123,5.20389 -3.25445,7.08803 -6.10253,5.68303 -3.52998,4.61842 -7.66409,5.93278 -4.25718,0.46202 -6.15809,-1.60857 -7.39137,-5.41743 -0.86573,-5.3049 0.92146,-8.63907 4.45382,-12.42463 0.87568,-0.67447 1.75135,-1.34894 2.62703,-2.02342 0,0 -0.0947,0.12694 -0.0947,0.12694 l 0,0 c -0.0677,0.0585 -0.13546,0.11695 -0.20318,0.17543 -2.02387,2.89579 -2.70425,6.31612 -2.00564,9.79287 1.14963,3.36593 2.8908,5.30806 6.6932,4.65594 3.13503,-1.20194 1.26132,-0.74696 -1.62823,2.97516 -0.3726,0.47996 0.93383,-0.78644 1.32714,-1.24958 1.34111,-1.57918 2.00051,-3.48975 2.2977,-5.51201 0.14986,-3.87671 -0.49468,-7.93712 -4.12718,-10.06705 -1.21924,-0.3552 -1.50557,-0.58523 -2.79057,-0.38644 -2.02077,0.31261 -6.1277,3.90525 0.5054,-2.06166 0.37603,-0.33825 -0.58487,0.82532 -0.87731,1.23798 -1.39989,3.45108 -1.12733,7.06761 -0.20231,10.63291 0,0 -3.63039,3.30461 -3.63039,3.30461 z"
         id="path3121"
         style="fill:#009ee0;fill-opacity:1;fill-rule:nonzero;stroke:none" />
      <path
         inkscape:connector-curvature="0"
         d="m 562.42383,624.48915 c 1.28481,-4.6429 -0.32068,-8.42088 -2.98321,-12.17877 -2.86344,-3.24423 -6.77558,-5.45981 -11.20585,-5.37322 -0.8559,0.0167 -1.69978,0.20527 -2.54967,0.3079 -0.82851,0.2904 -1.69551,0.48825 -2.48551,0.8712 -0.83083,0.40274 -1.62384,0.89702 -2.34685,1.47124 -0.77341,0.61425 -3.09725,2.18975 -2.11646,2.07358 1.19214,-0.14122 1.89545,-2.8524 2.87885,-2.16389 0.9485,0.66408 -1.08562,2.05353 -1.48329,3.14096 -0.43109,1.17881 -0.66238,2.42136 -0.99357,3.63204 -1.02394,6.77246 -0.0335,13.83209 3.4588,19.81111 0.61909,1.05991 1.41619,2.00527 2.12428,3.0079 0.82,0.756 1.54776,1.62631 2.45998,2.26801 3.688,2.59432 8.02912,2.02617 11.63669,-0.39478 0.99882,-0.67028 1.84497,-1.54395 2.76745,-2.31593 -0.9787,0.83733 -1.92571,3.31079 -2.93612,2.51199 -0.99725,-0.7884 1.43749,-2.10406 2.02831,-3.22968 2.27725,-4.33856 2.80604,-8.82447 2.77321,-13.63461 -0.0296,-3.61845 -1.71666,-6.90114 -2.33084,-10.40018 -0.14008,-0.79806 -0.16875,-1.61172 -0.25312,-2.41758 0,0 0.11104,-0.11289 0.11104,-0.11289 l 0,0 c 0.89043,0.0204 1.80338,-0.13884 2.6713,0.0612 3.62184,0.83475 4.71647,4.96941 5.39669,8.04861 0.41771,5.16766 0.0608,9.02483 -2.26121,13.78995 -0.56232,1.15396 -1.11423,2.34489 -1.94393,3.32438 -2.45403,2.8971 -5.23816,5.49758 -7.85724,8.24637 -0.97138,0.74012 -1.86572,1.59411 -2.91414,2.22034 -3.92651,2.34533 -8.53352,2.50748 -12.30793,-0.23963 -0.94497,-0.68776 -1.70012,-1.60421 -2.55018,-2.40632 -0.72299,-1.04832 -1.5439,-2.03546 -2.16897,-3.14495 -3.53182,-6.269 -4.14684,-13.70134 -3.19607,-20.70223 1.93294,-7.76955 2.366,-7.40756 8.90409,-14.38421 2.00292,-2.13727 4.39148,-3.48351 7.25151,-4.08584 0.87574,-0.0639 1.74946,-0.21511 2.62721,-0.19156 4.57688,0.12278 8.50937,2.57334 11.46496,5.91676 2.76527,3.99034 4.34778,7.97051 3.12047,12.86484 0,0 -4.79068,3.8079 -4.79068,3.8079 z"
         id="path3123"
         style="fill:#009ee0;fill-opacity:1;fill-rule:nonzero;stroke:none" />
      <path
         inkscape:connector-curvature="0"
         d="m 574.57469,598.85366 c 1.58934,7.32325 3.21405,14.63604 4.96407,21.92328 1.83126,7.19723 3.5226,14.42985 5.33685,21.63105 1.03511,3.8147 2.12843,3.37311 -4.83015,6.26909 -0.52406,0.2181 0.11257,-1.12976 0.15797,-1.69559 0.0605,-0.75467 0.10655,-1.51043 0.15982,-2.26565 0.39532,-7.23471 0.9871,-14.4473 2.03122,-21.61805 1.15588,-6.75433 2.88398,-12.07076 7.50851,-17.19656 3.82779,-3.87061 8.85325,-10.14603 15.27427,-8.07081 0.68412,0.2211 1.30089,0.61262 1.95133,0.91893 5.48863,4.32742 6.38093,11.64187 7.35567,18.12402 0.86291,7.72202 1.19528,15.49724 1.32937,23.26315 0.12495,3.42604 -0.28052,4.32772 -1.88678,7.31112 0,0 -0.11603,0.10776 -0.11603,0.10776 l 0,0 c -3.41408,0.95516 -2.99982,0.92939 -3.64647,-2.54996 -0.56626,-7.6792 -0.50449,-15.40084 -1.45344,-23.05301 -0.90062,-6.22219 -1.5947,-13.37187 -6.80249,-17.60149 -1.91861,-0.86902 -3.42886,-1.32479 -5.55858,-0.83748 -0.65826,0.15061 -1.30215,0.37658 -1.91593,0.65813 -0.66143,0.30343 -2.25325,1.72065 -1.89225,1.0888 0.84918,-1.48631 2.29714,-2.53852 3.4457,-3.80778 -4.86449,4.95161 -6.62911,10.10212 -7.84196,16.87823 -1.07668,7.11285 -1.62719,14.27597 -1.9428,21.46193 -0.01,0.17221 -0.22067,3.94343 -0.24311,3.97341 -5.9829,7.99433 -5.57653,8.50902 -6.65268,3.62322 -1.56941,-7.29383 -3.41826,-14.52365 -5.17285,-21.77418 -1.73274,-7.39766 -3.412,-14.81925 -4.53713,-22.33804 0,0 4.97787,-4.42352 4.97787,-4.42352 z"
         id="path3125"
         style="fill:#009ee0;fill-opacity:1;fill-rule:nonzero;stroke:none" />
      <path
         inkscape:connector-curvature="0"
         d="m 667.4215,590.37602 c 0.25976,6.7426 1.5977,13.3858 2.89902,19.9883 1.39123,6.8579 2.98172,13.67739 4.92391,20.40086 0.58374,1.09567 1.18012,5.60401 2.53869,6.06698 2.06041,-1.26239 5.82417,-4.80667 -2.83065,3.13705 -0.41727,0.38299 0.75602,-0.84495 1.10139,-1.29386 0.43956,-0.57133 0.83409,-1.17594 1.25113,-1.76391 3.90412,-6.49607 7.06828,-13.39879 10.68078,-20.05902 3.74745,-6.90058 8.48723,-13.13983 13.9501,-18.75548 3.00327,-2.93322 4.93676,-5.13467 7.86856,-7.4767 0.18636,-0.14887 1.31604,-1.08929 1.81361,-1.18211 0.49955,-0.0932 0.0229,0.47366 -0.27986,0.99622 0,0 -0.0941,0.12734 -0.0941,0.12734 l 0,0 c -1.17757,1.39096 -2.37966,2.63712 -3.74063,3.84984 -0.98952,0.88174 -3.81127,3.66402 -2.9818,2.63028 0.80793,-1.00689 1.79321,-1.85761 2.68981,-2.78642 -5.39993,5.48172 -10.09573,11.57905 -13.75345,18.37286 -3.51396,6.5511 -6.53754,13.35242 -10.22583,19.80742 -2.51366,3.79869 -4.64074,5.682 -8.40838,9.25113 -0.35441,0.33574 -1.04748,0.69374 -1.56392,0.7267 -0.22159,0.0141 -0.43786,-0.0742 -0.65679,-0.11124 -2.03412,-1.40165 -1.75485,-4.73453 -2.62191,-6.79634 -1.72135,-6.84861 -3.41535,-13.70696 -4.72275,-20.64958 -1.24195,-6.66394 -2.50386,-13.35315 -2.92018,-20.13034 0,0 5.08328,-4.34998 5.08328,-4.34998 z"
         id="path3127"
         style="fill:#333333;fill-opacity:1;fill-rule:nonzero;stroke:none" />
      <path
         inkscape:connector-curvature="0"
         d="m 719.95359,608.74589 c -2.61191,-3.55109 -5.25179,-4.24916 -9.48089,-3.62554 -2.01296,0.72322 -2.49563,0.75262 -4.31112,2.0209 -0.73133,0.5109 -2.36811,2.54215 -2.06427,1.70338 0.32086,-0.88574 1.57255,-2.63005 2.12301,-1.86553 0.58885,0.81784 -1.16429,1.65195 -1.63532,2.54287 -0.50738,0.95969 -0.86004,1.99351 -1.29006,2.99027 -1.83418,5.8943 -1.58027,12.15441 0.72664,17.89578 0.44337,1.10345 1.04597,2.13604 1.56896,3.20406 2.97219,4.60989 7.47807,7.81134 13.16595,7.4462 1.0402,-0.0668 2.05367,-0.35825 3.0805,-0.53738 0.98449,-0.37904 2.00858,-0.668 2.95347,-1.13712 0.95377,-0.47354 1.86592,-1.03998 2.71797,-1.67868 0.85474,-0.64072 3.44261,-2.26902 2.38173,-2.14409 -1.1288,0.13292 -1.66306,2.77422 -2.62767,2.17305 -0.91549,-0.57057 1.15717,-1.82822 1.60997,-2.80732 0.46089,-0.99656 0.74719,-2.06492 1.12079,-3.09738 1.72269,-7.02647 -0.18537,-13.16515 -3.14686,-19.49789 -1.08657,-2.43961 -2.4913,-4.71264 -3.80156,-7.03364 0,0 0.10963,-0.11426 0.10963,-0.11426 l 0,0 c 3.26856,0.5778 5.06199,1.10034 7.56761,3.45731 0.61546,0.81565 1.31128,1.57647 1.8464,2.44694 3.05546,4.97033 3.73811,10.93292 2.64282,16.57662 -0.34914,1.06179 -0.61067,2.15651 -1.04744,3.18536 -1.88657,4.44398 -4.32538,6.13998 -8.23466,10.08292 -1.50833,1.52133 -3.34222,2.79206 -5.29336,3.67572 -0.9838,0.44555 -2.04067,0.70796 -3.061,1.06194 -1.06224,0.14647 -2.11493,0.4066 -3.18671,0.43941 -5.89496,0.18045 -10.56219,-3.19517 -13.55428,-8.04803 -0.53176,-1.10415 -1.15334,-2.16937 -1.59528,-3.31244 -2.30031,-5.94983 -2.27006,-12.55105 -0.53388,-18.62225 0.42179,-1.03003 0.76603,-2.09535 1.26538,-3.09009 2.77353,-5.52513 7.94977,-10.4082 13.95191,-12.04737 4.6292,-0.35437 6.70767,0.7561 9.50005,4.44044 0,0 -3.46843,3.31584 -3.46843,3.31584 z"
         id="path3129"
         style="fill:#333333;fill-opacity:1;fill-rule:nonzero;stroke:none" />
      <path
         inkscape:connector-curvature="0"
         d="m 739.03744,594.78614 c 2.91333,5.84281 4.44986,12.24147 6.05158,18.5353 1.2818,5.19908 2.50724,10.41161 3.80307,15.60725 0.18,0.81332 0.67768,2.5496 0.86564,3.06398 -1.9325,-2.05478 0.0189,-0.24445 -5.19312,4.31163 -0.14746,0.1289 0.0628,-0.38667 0.0977,-0.5794 0.19292,-1.06614 0.42268,-2.12597 0.62698,-3.19003 0.83916,-4.99534 1.68362,-9.98504 2.7769,-14.93204 1.26699,-5.96638 3.63383,-11.45198 7.40395,-16.2355 3.68884,-3.70772 7.9963,-9.44679 14.0017,-9.40986 0.61511,0.004 1.22108,0.1499 1.83162,0.22485 0.57399,0.24552 1.19343,0.40431 1.72197,0.73658 4.33189,2.72326 4.85467,9.12736 5.56387,13.61948 0.98278,9.14041 1.11964,18.3414 1.75712,27.50814 0.19897,2.70251 0.52671,5.39239 0.81465,8.08606 0.0773,0.7234 0.33117,2.30232 0.0673,3.06705 -0.26256,0.76078 -0.75399,1.42212 -1.13098,2.13319 0,0 -0.11295,0.11099 -0.11295,0.11099 l 0,0 c -0.71528,0.30769 -1.37351,0.82408 -2.14585,0.92307 -2.40706,0.30853 -2.76892,-8.44407 -2.89478,-9.64333 -0.58922,-9.18441 -0.66637,-18.40089 -1.60616,-27.56076 -0.58214,-3.97122 -1.08772,-10.82597 -4.85519,-13.34339 -0.46111,-0.30811 -1.01713,-0.44232 -1.52569,-0.66349 -2.67396,-0.28099 -4.8715,0.25522 -7.15191,1.75092 -0.64499,0.42303 -2.24313,2.06013 -1.84105,1.40187 0.67358,-1.10274 1.79324,-1.861 2.68986,-2.7915 -3.80954,4.5904 -6.19715,9.8898 -7.31547,15.76883 -0.97211,4.87 -1.73091,9.77425 -2.49764,14.68009 -0.45659,2.58165 -2.00876,11.85003 -6.09032,9.04657 -0.71963,-0.98113 -0.37595,-2.51518 -0.88595,-3.58352 -1.18181,-5.26989 -2.38689,-10.53457 -3.57547,-15.80292 -1.50462,-6.30357 -2.98993,-12.68797 -5.74902,-18.58442 0,0 4.49774,-4.25569 4.49774,-4.25569 z"
         id="path3131"
         style="fill:#333333;fill-opacity:1;fill-rule:nonzero;stroke:none" />
    </g>
    <g
       id="g3220"
       transform="matrix(1.2350967,0,0,1.2350967,-111.44278,-205.58804)"
       style="fill:#ff6600">
      <path
         inkscape:connector-curvature="0"
         d="m 242.71046,747.11531 c -0.84535,9.59678 -0.53757,19.23889 -0.0537,28.84433 0.47712,9.41473 1.73464,18.75417 2.96628,28.09082 0.28943,2.79646 0.75445,5.74142 -1.47888,7.80473 0,0 -0.12707,0.0945 -0.12707,0.0945 l 0,0 c -2.40826,2.0292 -2.71288,-2.19636 -3.19934,-3.66744 -1.61951,-9.28982 -2.46544,-18.69747 -3.05142,-28.10402 -0.46446,-9.67012 -0.77867,-19.37779 0.13318,-29.03448 0,0 4.81092,-4.02844 4.81092,-4.02844 z"
         id="path3133"
         style="fill:#dc0067;fill-opacity:1;fill-rule:nonzero;stroke:none" />
      <path
         inkscape:connector-curvature="0"
         d="m 277.85867,746.71026 c -5.96986,-3.76344 -13.27095,-4.13463 -20.11768,-4.59387 -10.73963,-0.44834 -21.45906,0.54636 -32.10183,1.88249 -7.18509,0.88819 -14.26745,2.41577 -21.41693,3.52377 -2.6454,0.20332 -3.84705,1.11781 -2.12573,-1.86458 0,0 0.10945,-0.11444 0.10945,-0.11444 l 0,0 c 2.22173,-1.98642 3.5503,-2.88556 6.54116,-3.5454 7.14982,-1.84015 14.4829,-2.83253 21.7831,-3.87052 10.68699,-1.29656 21.44825,-2.26556 32.22579,-1.79951 6.85462,0.51387 14.41376,0.9122 19.89221,5.57528 0,0 -4.78954,4.80678 -4.78954,4.80678 z"
         id="path3135"
         style="fill:#dc0067;fill-opacity:1;fill-rule:nonzero;stroke:none" />
      <path
         inkscape:connector-curvature="0"
         d="m 252.9296,773.30377 c -6.25331,-2.44203 -12.95423,-2.85873 -19.58929,-3.02586 -6.81622,-0.10004 -13.62406,0.72309 -20.43443,0.28925 -1.87361,-0.4991 -1.41758,0.11228 -1.47042,-1.75318 0,0 0.10194,-0.12118 0.10194,-0.12118 l 0,0 c 3.1873,-1.98629 1.56081,-1.2924 4.81697,-2.22246 7.15993,-1.29478 14.44276,-1.72566 21.71427,-1.69751 6.66061,0.20276 13.48839,0.53978 19.62609,3.41612 0,0 -4.76513,5.11482 -4.76513,5.11482 z"
         id="path3137"
         style="fill:#dc0067;fill-opacity:1;fill-rule:nonzero;stroke:none" />
      <path
         inkscape:connector-curvature="0"
         d="m 275.54108,774.87979 c 0.82443,6.71192 2.07087,13.35477 3.47399,19.96634 0.90488,5.1469 2.83042,10.06009 3.79835,15.18551 0.37076,1.56994 -0.0944,2.37333 -1.17408,3.44897 0,0 -0.97706,1.04856 -0.97706,1.04856 l 0,0 c -1.15111,0.88012 -1.87665,1.38428 -2.6645,-0.12711 -2.1507,-4.70992 -2.85175,-9.96871 -4.17114,-14.93696 -1.36647,-6.6821 -2.5668,-13.40622 -3.30602,-20.18987 0,0 5.02046,-4.39544 5.02046,-4.39544 z"
         id="path3139"
         style="fill:#dc0067;fill-opacity:1;fill-rule:nonzero;stroke:none" />
      <path
         inkscape:connector-curvature="0"
         d="m 303.75812,785.44339 c -5.90095,-1.54655 -12.01884,-1.28432 -18.03589,-0.78968 -5.12904,0.45964 -10.14777,1.74439 -15.27629,2.18475 -1.23754,-0.47277 -0.84424,-0.0332 -0.26838,-1.74913 0,0 0.10093,-0.12202 0.10093,-0.12202 l 0,0 c 2.58667,-2.11024 1.29284,-1.31555 3.77835,-2.54438 5.28776,-1.69596 10.76308,-2.72477 16.28796,-3.26835 6.06216,-0.4551 12.26378,-0.69119 18.15606,1.08735 0,0 -4.74274,5.20146 -4.74274,5.20146 z"
         id="path3141"
         style="fill:#dc0067;fill-opacity:1;fill-rule:nonzero;stroke:none" />
      <path
         inkscape:connector-curvature="0"
         d="m 314.1131,791.23916 c 4.09237,1.26104 8.27951,1.55867 12.52779,1.30291 2.84419,-0.36908 5.76639,-0.93858 8.24627,-2.4694 0.51451,-0.31761 1.86159,-1.53191 1.45223,-1.08692 -1.24312,1.3513 -2.64501,2.54741 -3.96752,3.82111 2.34404,-3.24119 1.89117,-6.11507 -0.24235,-9.28019 -3.26453,-3.265 -5.71247,-3.35004 -9.60282,-1.08762 -0.54478,0.51487 -2.21845,2.01435 -1.63433,1.5446 1.21639,-0.9782 2.04215,-2.61315 3.53402,-3.0723 0.85267,-0.26244 -0.89763,1.54733 -1.24674,2.36834 -1.20089,2.82418 -1.4512,5.63515 -1.6046,8.65657 0.1724,4.76278 1.36712,9.55733 4.50594,13.27234 0.56876,0.67317 1.24587,1.24675 1.8688,1.87012 4.50778,3.71116 10.02614,3.93386 15.58637,3.57301 2.67753,0.24605 6.1242,-1.34457 8.72228,-0.45503 0.35732,0.12235 0.61572,0.43759 0.92357,0.65639 0,0 -0.0988,0.12372 -0.0988,0.12372 l 0,0 c -4.86676,3.18778 -8.70028,4.92291 -14.54257,5.59417 -5.7771,0.30691 -11.45519,-0.11995 -16.08741,-3.99678 -4.75744,-4.77285 -6.46525,-8.96782 -6.67341,-15.74393 0.57121,-9.43171 2.97005,-13.81511 11.13545,-20.0619 0.62491,-0.29365 1.21787,-0.66817 1.87473,-0.88095 3.19673,-1.0355 6.2944,0.35614 8.49437,2.66978 2.16277,3.08889 3.08533,6.5099 0.9896,9.93485 -6.72545,6.72283 -7.43529,8.58604 -16.36786,9.65422 -4.27887,0.20159 -8.53632,-0.19752 -12.61814,-1.5795 0,0 4.82515,-5.32761 4.82515,-5.32761 z"
         id="path3143"
         style="fill:#dc0067;fill-opacity:1;fill-rule:nonzero;stroke:none" />
      <path
         inkscape:connector-curvature="0"
         d="m 364.88773,774.44844 c 0.37986,6.63989 1.7925,13.15283 3.28348,19.61479 0.63813,4.17617 2.91755,9.05808 2.84057,13.30433 -0.0112,0.61538 -0.17386,1.21862 -0.26079,1.82793 -0.8298,1.95355 -0.43492,1.13284 -1.12725,2.4889 0,0 -0.11746,0.10621 -0.11746,0.10621 l 0,0 c -1.00287,0.19165 -0.40958,0.11458 -1.78934,0.14009 -0.32078,-0.24274 -0.71643,-0.40985 -0.96232,-0.72822 -0.55546,-0.71916 -1.24333,-2.82496 -1.47938,-3.5436 -0.95159,-2.89707 -1.71925,-5.85353 -2.45377,-8.8113 -1.52185,-6.51865 -2.92574,-13.10301 -3.26308,-19.80795 0,0 5.32934,-4.59118 5.32934,-4.59118 z"
         id="path3145"
         style="fill:#dc0067;fill-opacity:1;fill-rule:nonzero;stroke:none" />
      <path
         inkscape:connector-curvature="0"
         d="m 352.72386,758.64858 c 1.26405,-5.17674 5.02238,-8.30256 9.27903,-11.48484 0.47753,-0.357 1.15853,-0.28246 1.73779,-0.4237 4.70061,-0.0917 7.64903,3.20994 9.72093,7.04148 2.84128,7.97543 -1.82179,9.9669 -7.69158,15.3318 -3.4491,1.12107 -7.08862,0.0722 -9.4114,-2.77302 -0.48318,-0.59183 -0.81316,-1.2937 -1.21974,-1.94056 -2.23309,-5.89904 -0.16243,-7.75325 2.56589,-12.84936 0,0 0.12456,-0.0978 0.12456,-0.0978 l 0,0 c -0.1702,0.55138 -0.61513,1.08663 -0.51061,1.65414 0.0795,0.43156 0.77128,0.49438 0.97762,0.88166 0.70267,1.31883 0.60714,4.28591 1.97911,5.45306 2.64646,3.40236 5.61423,5.50361 9.99453,3.73998 -1.23303,1.39028 -2.48604,2.76308 -3.69909,4.17083 -0.39291,0.45598 0.89173,-0.82226 1.23793,-1.31464 1.58229,-2.25041 1.3658,-4.93856 0.4931,-7.40233 -1.77913,-3.55906 -4.36514,-6.95481 -8.75247,-6.71541 -3.22553,0.98129 -1.40849,0.72471 1.6271,-3.16542 0.36413,-0.46663 -0.90201,0.77453 -1.28335,1.2272 -0.80954,0.96097 -1.32527,2.01513 -1.79516,3.16841 -0.20806,0.51065 -0.36119,1.042 -0.54178,1.56299 0,0 -4.83241,3.93551 -4.83241,3.93551 z"
         id="path3147"
         style="fill:#dc0067;fill-opacity:1;fill-rule:nonzero;stroke:none" />
      <path
         inkscape:connector-curvature="0"
         d="m 407.54875,763.06759 c 1.37872,-3.89687 1.79913,-8.20256 0.46412,-12.18593 -0.28277,-0.84373 -0.72454,-1.62554 -1.08681,-2.43831 -3.29937,-4.87523 -6.75628,-5.80942 -12.3207,-4.62633 -1.90372,0.74855 -2.50119,0.85675 -4.1997,2.03265 -0.63997,0.44306 -2.33589,2.04959 -1.80883,1.47681 6.71771,-7.30044 3.01644,-2.90883 2.20997,-1.34431 -0.38893,0.75451 -0.64013,1.5724 -0.9602,2.3586 -2.20181,8.56999 -0.84261,17.51348 0.36084,26.13033 1.72966,10.90842 4.22149,21.6741 6.09215,32.55645 0.40659,3.8324 1.45672,7.77958 1.09723,11.67166 -0.0235,0.25435 -1.14492,5.53638 -1.2881,6.21449 0,0 -0.1195,0.1039 -0.1195,0.1039 l 0,0 c -0.30957,-0.45937 -0.59577,-0.9354 -0.92872,-1.37812 -0.43386,-0.57688 -1.04369,-1.03335 -1.36935,-1.67753 -1.49753,-2.96225 -1.61038,-7.16505 -2.63752,-10.2756 -2.36577,-10.73092 -4.58364,-21.50342 -6.39187,-32.34301 -1.23932,-8.73203 -2.5556,-17.75587 -0.53351,-26.47329 0.30751,-0.83289 0.54499,-1.6951 0.92253,-2.49867 2.59967,-5.53312 8.03806,-9.92511 13.8106,-11.71696 5.80484,-0.81205 9.36657,0.49188 12.61849,5.56219 0.3696,0.85707 0.81732,1.68452 1.10882,2.57119 1.35652,4.12623 0.99167,8.60375 -0.4261,12.64888 0,0 -4.61384,3.63091 -4.61384,3.63091 z"
         id="path3149"
         style="fill:#dc0067;fill-opacity:1;fill-rule:nonzero;stroke:none" />
      <path
         inkscape:connector-curvature="0"
         d="m 402.7445,800.64998 c -5.85532,-1.4695 -11.92611,-1.59903 -17.92871,-1.71886 -6.27184,-0.28896 0.0955,0.28606 -4.77594,-0.84264 -0.63306,-0.14668 -1.29349,-0.12656 -1.94023,-0.18983 0,0 0.10045,-0.12241 0.10045,-0.12241 l 0,0 c 3.47615,-1.34175 6.83215,-3.09837 10.5829,-3.53835 6.34925,-0.71964 12.76316,-0.81497 18.99214,0.8519 0,0 -5.03061,5.56019 -5.03061,5.56019 z"
         id="path3151"
         style="fill:#dc0067;fill-opacity:1;fill-rule:nonzero;stroke:none" />
      <path
         inkscape:connector-curvature="0"
         d="m 418.14475,775.86967 c 0.10246,6.12073 2.34335,11.6954 5.27648,16.95999 2.47133,3.59214 5.45162,7.68319 9.85433,9.02535 0.59714,0.18204 1.23116,0.20756 1.84674,0.31134 1.54731,-0.2324 1.95908,-0.091 3.2464,-1.10478 0.50843,-0.40041 1.84836,-1.8033 1.33378,-1.41083 -1.45855,1.11244 -2.46405,2.92918 -4.17881,3.58073 -0.81511,0.30972 0.76105,-1.57281 1.05495,-2.39376 0.33256,-0.929 0.5468,-1.8962 0.82021,-2.8443 1.18374,-5.24873 1.36802,-10.64078 1.26853,-15.99886 -0.21736,-3.13154 -0.3311,-0.54743 0.2361,-0.97931 1.88812,-1.43767 3.28346,-3.46691 5.21178,-4.85018 0.32182,-0.23085 -0.0875,0.78804 -0.10081,1.18387 -0.0191,0.56962 0.002,1.13989 0.004,1.70983 0.16365,5.28016 1.75316,10.29766 3.87054,15.08736 0.60497,1.80492 3.55362,5.90076 3.6203,7.70027 0.15144,4.08683 -1.11996,0.95463 0.0461,3.35077 0,0 -0.1103,0.11361 -0.1103,0.11361 l 0,0 c -4.83512,-1.0475 4.57684,0.81616 -3.67129,0.22681 -2.29542,-0.16401 -4.70064,-4.38518 -5.57861,-6.1011 -2.17127,-4.85807 -3.86656,-9.9599 -4.08418,-15.32391 -0.004,-0.26244 -0.0709,-2.90241 0.031,-3.03935 2.97445,-3.99983 6.05552,-9.2183 6.23101,-3.98301 0.24475,5.38268 -0.051,10.79812 -1.04367,16.09969 -1.672,6.83512 -1.96254,6.06384 -8.22764,12.74992 -1.43724,1.53381 -3.09229,2.14718 -5.16801,2.06795 -0.65678,-0.14709 -1.33464,-0.22015 -1.97033,-0.44127 -4.50042,-1.56549 -7.59,-5.6611 -10.16338,-9.42452 -2.95149,-5.44307 -5.04651,-11.22584 -5.24206,-17.4853 0,0 5.58728,-4.78701 5.58728,-4.78701 z"
         id="path3153"
         style="fill:#dc0067;fill-opacity:1;fill-rule:nonzero;stroke:none" />
      <path
         inkscape:connector-curvature="0"
         d="m 464.01845,773.24666 c 0.73006,6.24813 2.25194,12.35825 3.87187,18.42394 1.11315,3.35428 1.71063,6.90369 3.01058,10.19651 1.49672,1.92403 0.66338,0.73604 -5.17,4.33402 -0.31769,0.19595 0.21192,-0.71614 0.29972,-1.07892 0.47055,-1.9442 0.82651,-3.92387 1.23306,-5.88182 1.23666,-6.2755 2.81505,-12.45689 5.17586,-18.40506 1.04045,-2.29841 2.30339,-4.48053 4.16616,-6.21393 4.83182,-4.49623 5.18243,-6.6073 10.40456,-6.58651 5.29146,1.21805 6.90037,6.2683 8.03991,10.97562 0.99294,6.27958 0.95792,12.65811 1.48749,18.98517 0.16059,2.8072 1.04564,5.58151 0.67319,8.4161 -0.13695,1.04232 -0.49836,2.04264 -0.74754,3.06396 0,0 -0.11584,0.10797 -0.11584,0.10797 l 0,0 c -0.76767,-0.0969 -1.60857,0.0504 -2.30301,-0.29086 -2.27635,-1.11873 -2.26481,-4.62334 -2.85517,-6.6243 -0.88865,-6.21537 -0.80401,-12.49282 -1.67154,-18.70903 -0.96956,-4.31608 -2.30952,-9.33068 -7.27647,-10.3127 -4.51412,0.25727 -4.34499,2.58784 0.2367,-3.29911 0.45015,-0.57838 -1.10757,0.96758 -1.58618,1.52263 -1.40052,1.62424 -1.77196,2.5872 -2.79773,4.50047 -2.43278,5.87353 -4.02551,12.00866 -5.19779,18.25389 -0.0614,0.29873 -3.07709,19.5003 -7.36754,12.13554 -0.94983,-3.47323 -1.92937,-6.93862 -2.82549,-10.42657 -1.55843,-6.18174 -2.96951,-12.41624 -3.63497,-18.76723 0,0 4.95017,-4.31978 4.95017,-4.31978 z"
         id="path3155"
         style="fill:#dc0067;fill-opacity:1;fill-rule:nonzero;stroke:none" />
      <path
         inkscape:connector-curvature="0"
         d="m 510.06542,746.9632 c 0.13133,9.48407 0.52387,18.96146 0.97625,28.43477 0.46567,9.29673 1.111,18.5848 2.13688,27.8372 -0.0455,2.26389 1.09009,4.79398 0.37485,7.03968 -5.02312,4.8442 -3.11149,2.40721 -2.21186,-0.0245 0,0 0.12154,-0.10151 0.12154,-0.10151 l 0,0 c 0.0783,0.20134 0.073,0.46101 0.23498,0.60401 0.15865,0.14011 0.74082,-0.0233 0.61734,0.14866 -2.43932,3.39625 -1.75398,3.18488 -3.51117,3.60781 -1.28878,-0.63389 -1.02871,-5.14539 -1.39399,-6.24059 -0.95433,-9.32376 -1.58685,-18.67765 -1.97328,-28.04213 -0.36349,-9.54991 -0.76972,-19.10423 -0.7583,-28.66263 0,0 5.38676,-4.60072 5.38676,-4.60072 z"
         id="path3157"
         style="fill:#dc0067;fill-opacity:1;fill-rule:nonzero;stroke:none" />
      <path
         inkscape:connector-curvature="0"
         d="m 531.48296,769.51883 c -4.14374,2.98463 -8.36853,5.852 -12.61795,8.68314 -2.23518,1.54746 -4.5814,2.9606 -6.68832,4.68776 -1.26711,1.03872 -5.90303,5.67347 3.03465,-3.0371 -1.1226,2.04898 1.09878,4.52876 2.19889,6.1504 2.37708,3.52808 5.52597,6.27397 9.04878,8.59494 3.53166,2.13512 7.44826,3.47492 10.93854,5.67914 3.34443,2.08336 0.79462,2.65828 1.91439,4.89164 0,0 -0.11086,0.11307 -0.11086,0.11307 l 0,0 c -1.84683,-0.55126 0.3446,-0.0659 -2.97387,0.52222 -1.28229,0.22727 -2.28906,-0.19546 -3.48567,-0.52669 -4.05842,-1.27666 -8.05218,-2.80455 -11.67916,-5.06378 -3.60191,-2.41423 -6.82513,-5.26248 -9.09161,-9.0154 -1.23712,-2.17507 -3.01296,-4.86622 -2.07131,-7.44437 1.72082,-1.72995 3.41145,-3.49046 5.16247,-5.18984 2.10485,-2.04277 5.07144,-3.14457 7.31696,-5.00108 4.21974,-2.79112 8.40168,-5.63793 12.51752,-8.58069 0,0 -3.41345,4.53664 -3.41345,4.53664 z"
         id="path3159"
         style="fill:#dc0067;fill-opacity:1;fill-rule:nonzero;stroke:none" />
      <path
         inkscape:connector-curvature="0"
         d="m 575.57512,786.44312 c -5.73782,-2.21618 -11.99733,-2.14356 -18.05364,-2.08481 -3.10657,0.0619 -6.21265,0.25107 -9.32111,0.18052 -0.7698,-0.0175 -3.20679,-0.0517 -3.47574,-0.48432 -0.25772,-0.41455 0.14461,-0.96549 0.21691,-1.44824 0.0816,-0.18403 0.16311,-0.36807 0.24467,-0.55211 0,0 0.0985,-0.12402 0.0985,-0.12402 l 0,0 c 0.30372,-0.26738 0.60744,-0.53475 0.91116,-0.80212 0.77114,-0.5054 1.47171,-1.13988 2.31342,-1.51621 0.87159,-0.38969 3.60025,-0.58646 4.42399,-0.65282 3.18411,-0.25652 6.37834,-0.37714 9.57143,-0.44264 6.13592,-0.0174 12.55403,-0.1143 18.27777,2.4089 0,0 -5.20732,5.51787 -5.20732,5.51787 z"
         id="path3161"
         style="fill:#dc0067;fill-opacity:1;fill-rule:nonzero;stroke:none" />
      <path
         inkscape:connector-curvature="0"
         d="m 601.30202,746.46497 c -0.70845,7.82491 -1.09792,15.66929 -1.28657,23.52235 -0.18071,9.26788 0.12552,18.53332 0.3606,27.79683 -0.25099,2.10473 0.38938,5.69869 -0.50874,7.71643 -0.16664,0.37439 -0.46906,0.67212 -0.70359,1.00818 0,0 -2.35648,2.05489 -2.35648,2.05489 l 0,0 c -0.26048,0.0845 -0.52209,0.34125 -0.78144,0.2534 -0.68318,-0.23141 -1.00636,-5.88772 -1.02116,-6.41692 -0.33093,-9.29751 -0.48687,-18.60426 -0.29557,-27.90686 0.26457,-8.01175 0.58292,-16.03749 1.73886,-23.98049 0,0 4.85409,-4.04781 4.85409,-4.04781 z"
         id="path3163"
         style="fill:#ffb400;fill-opacity:1;fill-rule:nonzero;stroke:none" />
      <path
         inkscape:connector-curvature="0"
         d="m 585.98816,757.75771 c 0.81256,-3.95884 2.50176,-7.49957 5.08331,-10.58662 6.00618,-5.95416 8.12481,-9.17054 16.40232,-7.17083 5.95694,2.43183 8.55189,6.79274 10.46454,12.67479 1.29953,6.73082 -0.15044,10.63479 -4.73801,15.53376 -5.73288,6.36473 -9.70334,8.51943 -17.18677,10.98416 -2.79925,0.81475 -7.79673,3.81799 2.41935,-3.529 0.21824,-0.15695 0.13798,0.52318 0.25577,0.76481 0.19635,0.40277 0.45456,0.77232 0.68184,1.15848 2.86993,4.43015 5.99449,8.68365 9.29653,12.79923 3.01869,3.88451 6.91231,6.92074 10.31853,10.42946 2.48415,2.92204 3.00307,3.68973 1.75759,7.40929 0,0 -0.11545,0.10839 -0.11545,0.10839 l 0,0 c -3.25134,0.38463 -4.06045,-0.65771 -6.67034,-2.41721 -4.01143,-2.91746 -7.60175,-6.35576 -10.72719,-10.21287 -3.31385,-4.16675 -6.39622,-8.51212 -9.23194,-13.01942 -0.35664,-0.63219 -1.25574,-2.14496 -1.15128,-2.30125 3.48814,-5.21899 3.51141,-5.57113 7.55237,-6.66646 2.6292,-0.85386 5.23332,-1.7967 7.64942,-3.16213 0.76905,-0.43463 2.48036,-2.25692 2.24704,-1.40492 -0.36772,1.34283 -1.81891,2.10838 -2.72837,3.16258 4.66652,-4.58942 6.34769,-8.32775 5.22194,-14.95636 -1.74537,-5.56667 -4.24618,-9.9206 -9.81152,-12.33376 -2.8314,-0.66343 -5.37145,-0.8051 -8.05932,0.53753 -0.581,0.29022 -1.9968,1.58038 -1.65504,1.02811 0.7848,-1.26819 2.03101,-2.18444 3.04652,-3.27667 -2.71341,2.97529 -4.54607,6.46015 -5.39641,10.42096 0,0 -4.92543,4.02595 -4.92543,4.02595 z"
         id="path3165"
         style="fill:#ffb400;fill-opacity:1;fill-rule:nonzero;stroke:none" />
      <path
         inkscape:connector-curvature="0"
         d="m 638.73878,795.05261 c 0.55622,-4.26263 -0.38218,-8.29861 -2.56565,-11.95279 -3.08498,-3.63159 -5.04026,-3.50133 -8.49288,-0.47383 0.94382,-0.82251 1.5863,-2.3376 2.83147,-2.46753 0.88804,-0.0927 -0.96016,1.51017 -1.35081,2.31304 -1.75487,3.60655 -2.17895,7.27432 -2.1184,11.22288 0.47379,3.22973 1.6203,7.53601 5.37433,8.32916 0.57932,0.1224 1.18346,0.0423 1.7752,0.0634 1.71437,-0.45583 2.03725,-0.37284 3.51903,-1.47687 0.5635,-0.41985 2.07374,-1.89719 1.54508,-1.43423 -5.21903,4.57041 -3.88357,4.24354 -2.5077,1.28387 0.31004,-0.66693 0.51861,-1.37648 0.77792,-2.06472 0.95686,-2.50697 0.58969,-5.1324 0.71372,-7.72446 0.34518,-7.21336 0.15947,2.76711 0.24398,-3.85108 0,0 0.11315,-0.11078 0.11315,-0.11078 l 0,0 c 0.74863,0.10015 2.54469,0.23925 3.22394,0.72068 1.93119,1.36876 1.33921,4.74015 1.13186,6.6304 -1.66774,5.48165 -2.72165,5.58324 -7.91461,10.83187 -1.5263,1.54267 -3.37022,2.3824 -5.5178,2.56694 -0.63626,-0.0888 -1.2946,-0.0781 -1.90879,-0.26652 -4.00746,-1.22943 -5.18177,-5.57382 -5.52733,-9.25723 0.004,-4.05861 0.47358,-7.93652 2.16271,-11.68343 0.37341,-0.82833 0.71399,-1.69968 1.29392,-2.39915 1.80957,-2.18257 3.88664,-4.12877 5.82996,-6.19315 0.55377,-0.40947 1.05747,-0.8972 1.66131,-1.2284 2.97232,-1.63029 5.69822,0.0947 7.52153,2.5 2.27204,3.81494 3.26664,7.99356 2.63481,12.44034 0,0 -4.44995,3.68155 -4.44995,3.68155 z"
         id="path3167"
         style="fill:#ffb400;fill-opacity:1;fill-rule:nonzero;stroke:none" />
      <path
         inkscape:connector-curvature="0"
         d="m 655.08918,768.498 c -0.63659,7.12274 0.0333,14.22544 1.43554,21.21029 1.08403,3.46962 2.16606,9.32942 5.73956,11.29106 0.4516,0.2479 0.98506,0.30206 1.47758,0.45309 1.61019,-0.1617 1.79043,-0.0151 3.28354,-0.89758 0.60725,-0.35891 2.14165,-1.81159 1.69738,-1.26371 -0.93469,1.15267 -1.95088,2.28918 -3.19049,3.10504 -0.72568,0.4776 1.11118,-1.33917 1.59932,-2.05781 0.49777,-0.73282 0.90163,-1.5252 1.35245,-2.2878 2.12286,-4.04623 3.01674,-8.51238 3.65415,-12.99014 0.35946,-3.18492 -0.38746,-0.36651 0.48271,-0.99762 1.70073,-1.2335 2.89862,-3.095 4.65151,-4.25319 0.38086,-0.25165 -0.18457,0.89463 -0.25179,1.34615 -0.0957,0.64254 -0.15776,1.28963 -0.23663,1.93444 -0.63751,5.71129 -0.10712,11.41151 1.053,17.01245 0.193,3.08284 2.44648,6.15035 2.6793,9.17384 0.24437,3.17334 -0.90816,1.39203 0.55128,3.11853 0,0 -0.10804,0.11578 -0.10804,0.11578 l 0,0 c -0.48619,-0.0533 -0.96947,-0.15952 -1.45857,-0.15977 -0.78234,-4e-4 -1.58032,0.33773 -2.3417,0.15784 -2.6197,-0.61895 -3.8859,-5.63559 -4.59325,-7.70868 -1.24799,-5.65343 -1.824,-11.41575 -1.19058,-17.19907 0.0158,-0.13999 0.33188,-3.21197 0.45423,-3.37708 2.66681,-3.59893 6.0914,-8.63072 5.49959,-3.48536 -0.50118,4.52863 -1.43164,9.02401 -3.43058,13.15298 -2.59581,4.70801 -4.97207,6.9421 -9.38888,10.98939 -0.9464,0.86722 -2.54466,1.67906 -3.82234,1.92196 -0.60825,0.11564 -1.23788,0.0319 -1.85682,0.0478 -0.57063,-0.1933 -1.18116,-0.29477 -1.7119,-0.57991 -4.06487,-2.18391 -4.96973,-7.74623 -6.06851,-11.71142 -1.22262,-7.23492 -1.7029,-14.57141 -0.943,-21.89255 0,0 4.98194,-4.16894 4.98194,-4.16894 z"
         id="path3169"
         style="fill:#ffb400;fill-opacity:1;fill-rule:nonzero;stroke:none" />
      <path
         inkscape:connector-curvature="0"
         d="m 696.81807,736.46151 c -0.32611,9.53808 -0.38112,19.07307 -0.14139,28.61335 0.22615,10.03401 1.67822,19.96713 2.88127,29.91214 0.44492,6.79887 0.22384,-0.0804 -0.2454,6.6312 -0.0482,0.68932 0.0601,1.38069 0.0901,2.07104 0,0 -0.11731,0.10636 -0.11731,0.10636 l 0,0 c -0.31351,-0.43551 -0.56314,-0.92505 -0.94053,-1.30654 -2.84893,-2.87983 -0.84219,0.50968 -2.85001,-3.88782 -2.82421,-9.45786 -3.55102,-19.33725 -3.90012,-29.16488 -0.21946,-9.63882 -0.1979,-19.28209 0.43401,-28.90759 0,0 4.78935,-4.06726 4.78935,-4.06726 z"
         id="path3171"
         style="fill:#ffb400;fill-opacity:1;fill-rule:nonzero;stroke:none" />
      <path
         inkscape:connector-curvature="0"
         d="m 708.21104,781.33955 c -5.35275,-2.8104 -11.15122,-4.54431 -16.96169,-6.11344 -3.06357,-0.89853 -6.21929,-1.4356 -9.31339,-2.20117 -0.7508,-0.18577 -1.53582,-0.30255 -2.22823,-0.6472 -0.51149,-0.25458 -0.86992,-0.74091 -1.30488,-1.11137 0,0 0.1013,-0.12171 0.1013,-0.12171 l 0,0 c 1.2536,-0.58628 2.44798,-1.32096 3.76079,-1.75884 4.45393,-1.48558 9.33281,-0.31628 13.76494,0.52951 5.85292,1.5391 11.82071,3.17868 17.03373,6.34729 0,0 -4.85257,5.07693 -4.85257,5.07693 z"
         id="path3173"
         style="fill:#ffb400;fill-opacity:1;fill-rule:nonzero;stroke:none" />
      <path
         inkscape:connector-curvature="0"
         d="m 719.87075,779.62204 c 4.02333,1.50356 7.60738,1.84296 11.67941,0.41753 0.50634,-0.31352 1.05545,-0.56671 1.51903,-0.94057 0.44199,-0.35645 1.61107,-1.59717 1.17573,-1.23263 -1.44057,1.20632 -2.5978,2.77654 -4.19715,3.76272 -0.45626,0.28135 0.43426,-0.98812 0.54724,-1.51211 0.29085,-1.34904 0.0787,-1.69022 -0.19651,-2.9867 -2.15989,-3.95207 -4.82236,-2.65117 -7.64453,-0.24107 1.2088,-1.08678 2.12301,-2.64217 3.62639,-3.26033 0.81696,-0.33592 -0.93947,1.50215 -1.30554,2.30605 -1.71443,3.76491 -1.82992,7.64772 -1.56095,11.69008 0.70613,4.47106 2.49969,8.93828 6.38861,11.56955 0.64069,0.43349 1.36257,0.73282 2.04385,1.09923 4.39812,1.5035 8.73633,0.11768 12.79247,-1.70985 1.37884,-0.618 0.75469,-0.24034 1.88744,-1.10786 0,0 -0.0932,0.128 -0.0932,0.128 l 0,0 c -2.4977,2.68036 -1.14323,1.34382 -4.09123,3.98125 -4.67288,3.23168 -9.8785,5.85223 -15.67757,4.23315 -0.76671,-0.36105 -1.58551,-0.62761 -2.30014,-1.08314 -4.10704,-2.61796 -5.96189,-7.48074 -6.81028,-12.03634 -0.29195,-4.23027 -0.13307,-8.24988 1.5402,-12.22517 0.3565,-0.84697 0.67328,-1.74616 1.26437,-2.44977 2.07279,-2.46735 4.44757,-4.66436 6.67136,-6.99654 0.57568,-0.39876 1.10132,-0.88181 1.72704,-1.19628 2.79849,-1.40645 5.56393,-0.17438 6.89195,2.49811 1.58275,5.56661 -1.44089,6.79174 -5.83523,11.4651 -1.1184,1.18941 -1.53425,1.24757 -2.97808,2.00009 -4.07826,1.18982 -8.13521,0.8567 -12.10148,-0.6933 0,0 5.03683,-5.4792 5.03683,-5.4792 z"
         id="path3175"
         style="fill:#ffb400;fill-opacity:1;fill-rule:nonzero;stroke:none" />
      <path
         inkscape:connector-curvature="0"
         d="m 752.24976,799.57091 c -2.18556,-5.06064 -3.34299,-10.42216 -3.91479,-15.88057 -0.40284,-9.3945 2.58936,-10.5155 9.53244,-17.08279 3.20295,-1.7044 6.74867,-1.98619 10.21455,-1.05363 2.14742,1.09688 2.11991,1.40117 2.13879,3.76046 0,0 -0.11054,0.11337 -0.11054,0.11337 l 0,0 c -1.88861,0.27156 -3.65155,0.31729 -5.5572,0.17904 -3.90123,0.17926 -7.79652,0.83259 -11.1465,2.9778 1.25603,-1.3597 2.50989,-2.7214 3.76809,-4.07909 0.42108,-0.45436 -0.89473,0.8664 -1.2567,1.36912 -1.88131,2.61283 -2.02227,5.94288 -2.07345,9.03242 0.32178,5.53816 1.162,11.03441 3.20908,16.22584 0,0 -4.80377,4.43803 -4.80377,4.43803 z"
         id="path3177"
         style="fill:#ffb400;fill-opacity:1;fill-rule:nonzero;stroke:none" />
      <path
         inkscape:connector-curvature="0"
         d="m 781.89825,764.68367 c -1.90508,5.75401 -2.8633,11.73549 -3.40926,17.75312 -0.40299,5.18902 0.14536,10.36379 0.84201,15.49866 0.68835,3.39327 1.47587,2.45626 -4.34848,5.50688 -0.35827,0.18765 0.15073,-0.79475 0.21951,-1.1933 0.0966,-0.55979 0.18437,-1.12105 0.27656,-1.68158 0.94345,-5.96283 2.6323,-11.75156 4.67326,-17.42052 2.84621,-7.02884 7.38728,-13.64904 14.17817,-17.44456 5.61538,-1.74961 7.50089,1.80029 9.37423,6.44137 2.00823,6.83118 2.04331,14.00854 2.08877,21.06882 -0.35503,3.07249 0.44308,6.44728 -0.45602,9.46568 -0.27048,0.90803 -0.72783,1.74957 -1.09174,2.62436 0,0 -0.1168,0.10692 -0.1168,0.10692 l 0,0 c -0.66495,0.0351 -1.36508,0.32172 -1.99485,0.10543 -1.71861,-0.59023 -1.48461,-6.4791 -1.61379,-7.78962 -0.0936,-6.9903 -0.0356,-14.08876 -1.91974,-20.8816 -1.5817,-4.16821 -3.2424,-7.81233 -8.32404,-5.85355 -2.68493,1.63554 -2.43342,1.68927 1.23245,-2.12191 0.59607,-0.61971 -1.18905,1.24608 -1.71985,1.92254 -1.97571,2.51786 -3.39926,5.3935 -4.59545,8.3465 -2.06516,5.59379 -3.74702,11.32356 -4.6401,17.23234 -0.0849,0.55596 -0.17178,1.11162 -0.25471,1.66788 -0.0601,0.40321 0.0889,0.89925 -0.17437,1.2105 -5.35713,6.33327 -4.98853,7.02203 -5.60434,2.91529 -0.77539,-5.24543 -1.01297,-10.56301 -0.64793,-15.85663 0.58378,-6.10777 1.57467,-12.17391 3.51745,-18.01382 0,0 4.50906,-3.6092 4.50906,-3.6092 z"
         id="path3179"
         style="fill:#ffb400;fill-opacity:1;fill-rule:nonzero;stroke:none" />
    </g>
    <g
       id="g3306"
       transform="matrix(0.74978733,0,0,0.74978733,329.79127,171.99108)"
       style="fill:#333333;fill-opacity:1">
      <path
         transform="translate(0,284.3623)"
         inkscape:connector-curvature="0"
         d="m 28.75257,745.9088 c 2.599285,-7.10201 5.023106,-14.26624 7.368107,-21.45567 2.507369,-7.87508 4.932308,-15.77635 7.324732,-23.68704 1.278719,-4.24656 2.525741,-8.50345 3.675549,-12.78692 0.40523,-1.43821 0.737645,-2.89656 1.153636,-4.33172 0.749638,-2.5989 -1.107332,-1.08867 5.773745,-4.41658 0.329917,-0.15956 0.386068,0.62405 0.551861,0.95088 0.243268,0.47956 0.449327,0.97709 0.673991,1.46564 2.664467,7.43906 4.715212,15.08491 7.02961,22.63843 2.410998,7.93265 5.352911,15.68324 8.437435,23.37352 1.438088,3.72719 3.127957,7.36339 4.382499,11.15936 0.764202,2.29709 0.139443,3.07899 -1.433982,4.77758 0,0 -0.108143,0.11568 -0.108143,0.11568 l 0,0 c -1.692898,1.42386 -2.471327,2.25005 -3.826395,0.0851 -1.909299,-3.46855 -3.171858,-7.24903 -4.710919,-10.88646 -3.055118,-7.74809 -6.006509,-15.54332 -8.352255,-23.54157 -2.241076,-7.62492 -4.232923,-15.32386 -6.631698,-22.90056 -0.184945,-0.49624 -0.353172,-0.99904 -0.554834,-1.48873 -0.131386,-0.31903 -0.644083,-0.65462 -0.443427,-0.9353 7.976285,-11.15753 5.580513,-6.82161 4.537631,-4.64499 -0.589158,1.46 -1.004199,2.98193 -1.427498,4.49629 -1.228033,4.30606 -2.463484,8.61024 -3.778651,12.89071 -2.415953,7.9039 -4.819898,15.8117 -7.313969,23.69142 -2.231149,7.03891 -4.47808,14.07318 -6.846012,21.06755 0,0 -5.481013,4.36341 -5.481013,4.36341 z"
         id="path3272"
         style="fill:#333333;fill-opacity:1;fill-rule:nonzero;stroke:none" />
      <path
         transform="translate(0,284.3623)"
         inkscape:connector-curvature="0"
         d="m 60.744172,725.83699 c -5.352051,-0.69965 -10.746178,-0.85435 -16.135881,-0.7348 -1.234064,-0.21072 -6.758017,1.02629 -7.677695,-0.0195 -0.129925,-0.14774 -0.03998,-0.39145 -0.05996,-0.58717 0.325832,-0.516 0.651665,-1.032 0.977497,-1.548 0,0 0.106456,-0.11723 0.106456,-0.11723 l 0,0 c 0.490217,-0.46437 0.980433,-0.92875 1.47065,-1.39313 3.056784,-1.9543 6.66384,-2.20237 10.21984,-2.25375 5.432258,-0.0743 10.860374,0.1282 16.262254,0.73881 0,0 -5.163157,5.91476 -5.163157,5.91476 z"
         id="path3274"
         style="fill:#333333;fill-opacity:1;fill-rule:nonzero;stroke:none" />
      <path
         transform="translate(0,284.3623)"
         inkscape:connector-curvature="0"
         d="m 79.653292,710.73302 c 1.786204,5.072 3.400043,10.20317 5.058877,15.31788 1.272567,3.78936 2.576166,7.57018 4.070388,11.27872 0.103334,0.2374 0.203104,0.47639 0.31,0.71221 0.09121,0.20122 0.262483,0.37379 0.298491,0.59176 0.0082,0.0495 -0.05934,-0.0809 -0.08902,-0.1214 -5.939584,5.28395 -4.695604,7.48779 -6.046124,4.59174 -1.300088,-2.62609 -1.324901,-5.49657 -1.161321,-8.35479 0.516845,-5.16257 2.461665,-9.96098 4.83699,-14.51903 2.412292,-4.07979 7.433273,-10.81091 11.386475,-12.24601 2.921552,-0.0503 4.273782,2.93947 5.345562,5.20598 1.80301,4.67218 2.33874,9.69624 3.02754,14.62201 0.29389,3.40722 1.40745,6.67201 1.83294,10.0515 -0.10391,2.08744 0.11646,0.9108 -1.03942,3.43759 0,0 -0.11137,0.11256 -0.11137,0.11256 l 0,0 c -2.61364,1.16804 -1.42676,1.11772 -3.46943,0.81475 -0.29369,-0.22241 -0.63834,-0.39009 -0.88106,-0.66723 -1.82269,-2.08117 -1.53218,-6.09658 -2.17933,-8.61391 -0.66672,-4.85849 -1.178421,-9.80755 -2.891357,-14.43596 -0.789014,-1.75926 -1.919635,-4.98791 -4.381071,-4.45969 -2.63416,1.50922 -0.753466,0.52094 3.802228,-4.24747 0.318477,-0.33335 -0.68098,0.62326 -0.993821,0.9619 -1.366724,1.47944 -2.484764,3.16934 -3.525,4.8864 -2.402403,4.42556 -4.370957,9.10089 -4.907835,14.15818 -0.16661,2.70719 -0.167897,5.427 1.061704,7.91819 1.634665,3.33081 -5.320341,9.57515 -5.990564,4.8985 -1.3679,-3.81365 -2.699378,-7.6417 -3.871786,-11.52088 -1.585659,-5.18765 -3.026545,-10.42016 -4.724567,-15.57291 0,0 5.231879,-4.80059 5.231879,-4.80059 z"
         id="path3276"
         style="fill:#333333;fill-opacity:1;fill-rule:nonzero;stroke:none" />
      <path
         transform="translate(0,284.3623)"
         inkscape:connector-curvature="0"
         d="m 133.78015,718.8024 c -1.70297,-3.18251 -3.71503,-5.28436 -7.22645,-6.26873 -3.51324,-0.43156 -6.50551,1.18751 -9.17725,3.28565 -3.70866,3.67581 2.0641,-2.06029 2.96795,-2.79582 0.44689,-0.36367 -0.69006,0.92428 -0.99841,1.41099 -0.99428,1.56941 -1.63736,3.23283 -2.24982,4.9753 -1.44631,4.51833 -0.97863,9.05442 0.27952,13.53536 1.39752,4.03594 3.71969,7.57512 7.4489,9.73504 1.55436,0.6008 3.05059,0.65125 4.59993,-0.0336 2.09264,-0.925 3.72849,-2.81203 3.44013,-2.52796 -1.1782,1.16068 -2.41618,2.25907 -3.62427,3.3886 4.15483,-5.23363 6.45689,-11.52575 8.34855,-17.85368 1.11143,-3.97765 1.92627,-8.03217 2.14163,-12.15933 0.0422,-3.14208 -0.31604,-6.27143 -0.48408,-9.40658 -0.16447,-2.96164 -0.25189,-5.92707 -0.24139,-8.89317 0.0246,-2.51065 0.0799,-5.02395 -0.12829,-7.52851 -0.0789,-1.08906 -0.35008,-2.14799 -0.55571,-3.21667 -0.68702,-3.67653 -0.35242,-1.4186 5.5051,-6.02108 -0.32864,4.33556 -0.31591,8.68192 -0.26087,13.02625 0.16809,8.47158 0.90633,16.91607 1.76084,25.34153 0.61881,5.68671 1.31986,11.364 1.91445,17.05337 -0.2391,1.14838 1.01765,4.25966 0.28051,5.17142 -1.4703,0.14618 -0.49316,-0.0847 -2.4502,1.75201 0,0 0.12162,-0.10141 0.12162,-0.10141 l 0,0 c -2.12161,3.34749 -0.76436,2.86756 -2.82275,3.26868 -0.14455,-0.005 -0.31415,0.0654 -0.43366,-0.0161 -0.53479,-0.36465 -0.33203,-4.3587 -0.5813,-4.94556 -0.54369,-5.7138 -1.23446,-11.41179 -1.83804,-17.11936 -0.83901,-8.44036 -1.57946,-16.89635 -1.81579,-25.37858 -0.0946,-4.36346 -0.23635,-8.75165 0.19488,-13.10224 6.92535,-6.49802 5.45669,-7.87082 6.11438,-3.95935 0.16982,1.10448 0.46937,2.18599 0.57083,3.30143 0.16697,2.53206 0.19274,5.06771 0.12951,7.60473 -0.0109,2.95775 0.0641,5.91293 0.20327,8.86757 0.17977,3.13209 0.47629,6.25631 0.60687,9.39051 -0.0683,4.13857 -0.82113,8.21726 -1.89772,12.20913 -1.85844,6.38187 -4.11508,12.72375 -8.12151,18.11236 -2.42549,2.49105 -4.78661,5.04643 -7.27647,7.47313 -2.44152,2.37959 -5.61709,3.34656 -8.79511,1.97143 -3.83537,-2.34639 -6.32866,-5.96576 -7.82782,-10.18528 -1.35793,-4.57963 -1.97015,-9.24523 -0.56618,-13.91284 1.99019,-6.03441 5.62598,-10.49317 10.8609,-14.46126 2.83455,-1.95819 5.94167,-3.28709 9.44875,-2.527 3.44749,1.23444 5.79796,3.69217 7.24793,7.06158 0,0 -4.81336,4.478 -4.81336,4.478 z"
         id="path3278"
         style="fill:#333333;fill-opacity:1;fill-rule:nonzero;stroke:none" />
      <path
         transform="translate(0,284.3623)"
         inkscape:connector-curvature="0"
         d="m 156.71059,739.93349 c -1.36501,-3.3472 -2.64147,-6.72942 -4.02057,-10.07082 -1.03127,-2.43212 -1.98937,-4.89815 -2.69737,-7.44485 -0.39382,-1.63121 -0.52682,-3.26632 0.12204,-4.83633 2.72898,-4.70321 5.32803,-6.59602 9.8731,-6.54819 3.26818,0.25579 6.41268,1.27377 9.55679,2.13922 1.57892,0.61588 5.07361,1.14219 6.24186,2.43931 0.56051,0.62234 0.6715,1.5347 1.02153,2.2956 0,0 -0.10425,0.11919 -0.10425,0.11919 l 0,0 c -0.47481,0.17228 -4.15241,1.51554 -4.44882,1.58257 -2.61596,0.59157 -5.39801,-0.0734 -7.94413,-0.63083 -3.08893,-0.84431 -6.18243,-1.7947 -9.39464,-2.01918 -0.90887,-0.009 -1.80229,-0.0447 -2.66479,0.29995 -0.1987,0.0794 -0.71064,0.46115 -0.56537,0.30404 3.80753,-4.11813 6.715,-6.44127 4.3608,-4.53646 -1.06431,1.42294 -1.23608,3.17114 -1.02533,4.90446 0.43349,2.64363 1.34272,5.14285 2.34766,7.62012 1.28775,3.40019 2.55048,6.80981 3.87105,10.19735 0,0 -4.52956,4.18485 -4.52956,4.18485 z"
         id="path3280"
         style="fill:#333333;fill-opacity:1;fill-rule:nonzero;stroke:none" />
      <path
         transform="translate(0,284.3623)"
         inkscape:connector-curvature="0"
         d="m 188.68375,723.81135 c 3.05839,-0.71716 5.88987,-1.9411 8.0591,-4.2448 -8.09455,7.98852 -3.31442,4.21302 -3.36674,1.04468 -0.0155,-0.93693 -0.18465,-1.08401 -0.56204,-1.91137 -1.97787,-2.41106 -5.02491,-1.62848 -7.58947,-0.74682 -1.53466,0.77563 -1.9951,0.90661 -3.35088,2.00931 -0.53238,0.433 -2.00497,1.87471 -1.50161,1.40831 5.80713,-5.38061 3.53887,-3.88196 1.99747,0.0114 -1.10497,4.31033 0.0515,7.42101 3.02226,10.56424 3.23204,2.80244 7.32903,3.31376 11.41618,3.71619 1.28108,0.2767 3.44957,-0.0145 4.45636,1.11628 1.524,1.7117 -0.81529,1.11159 1.76382,1.34921 0,0 -0.10144,0.12159 -0.10144,0.12159 l 0,0 c -3.95732,1.05369 0.74225,-0.33568 -4.52229,1.89794 -2.05778,0.87307 -4.3055,1.11775 -6.51287,1.20353 -4.37799,-0.0986 -8.62185,-0.95623 -12.03623,-3.89835 -3.19659,-3.36961 -4.59942,-6.6867 -3.43987,-11.35513 1.85606,-4.86901 3.83074,-6.12489 8.22429,-10.52772 1.41059,-1.41357 3.15464,-2.40995 5.00472,-3.12061 2.97421,-0.83818 6.11727,-1.21038 8.30835,1.42171 2.81141,4.97057 -1.873,8.16618 -5.51393,11.60353 -2.33045,2.08607 -5.17091,3.25797 -8.24713,3.79717 0,0 4.49195,-5.46029 4.49195,-5.46029 z"
         id="path3282"
         style="fill:#333333;fill-opacity:1;fill-rule:nonzero;stroke:none" />
      <path
         transform="translate(0,284.3623)"
         inkscape:connector-curvature="0"
         d="m 217.04222,728.06627 c 0.0424,-3.6995 -0.52591,-7.30055 -2.68898,-10.355 -2.62927,-2.5653 -5.60021,-1.392 -8.27018,0.4165 -0.48658,0.47287 -1.96838,1.86769 -1.45974,1.41863 1.29073,-1.13956 2.33501,-2.59796 3.80707,-3.49105 0.61165,-0.37108 -0.77808,1.20449 -1.09519,1.84578 -0.97438,1.97045 -1.28634,3.89807 -1.45909,6.0569 0.085,3.21356 0.95531,6.31267 3.82369,8.02772 2.4622,0.824 4.66605,-0.3046 6.64805,-1.70544 3.01107,-2.83768 -2.41983,2.50091 -3.697,3.68125 -0.32174,0.29735 0.5666,-0.6696 0.82183,-1.02567 0.86289,-1.20382 1.4183,-2.48541 1.95235,-3.85616 0.64511,-1.88094 1.02441,-3.83822 1.31454,-5.80134 0.38608,-2.54894 -0.0613,-1.0862 5.43248,-4.36776 0.23299,-0.13917 -0.0957,0.53505 -0.11868,0.80546 -0.0816,0.96023 -0.0245,1.40446 0.0206,2.40668 0.30001,3.44028 1.39889,6.69175 3.16011,9.64449 1.29333,2.14017 3.66771,3.16584 5.19522,5.06561 -0.22924,1.9987 -0.73714,1.59859 0.8889,1.72404 0,0 -0.10148,0.12156 -0.10148,0.12156 l 0,0 c -2.44347,0.61565 -1.03323,0.12243 -4.08487,1.8445 -3.72117,0.57014 -5.34577,-0.36904 -7.56907,-3.35506 -1.85932,-3.07369 -3.08011,-6.42928 -3.30205,-10.04388 -0.14489,-5.24855 0.20785,-3.73821 5.8762,-8.78018 0.11341,-0.10089 -0.20892,0.77824 -0.0211,0.45489 -0.19209,1.98108 -0.56962,3.94172 -1.13032,5.85242 -1.63291,5.02999 -4.78231,8.66234 -9.32948,11.82493 -2.28459,1.43603 -4.74794,2.30935 -7.37866,1.18367 -3.03607,-1.97117 -4.23521,-5.16068 -4.32589,-8.72182 0.60827,-7.79943 4.15261,-11.43975 10.56919,-16.62972 3.27607,-1.84342 5.98108,-2.31085 8.7983,0.61365 2.18574,3.23587 2.82174,6.96965 2.79004,10.84056 0,0 -5.06678,4.30384 -5.06678,4.30384 z"
         id="path3284"
         style="fill:#333333;fill-opacity:1;fill-rule:nonzero;stroke:none" />
      <path
         transform="translate(0,284.3623)"
         inkscape:connector-curvature="0"
         d="m 242.75435,707.43663 c -3.06786,0.85197 -6.53006,1.50151 -8.75445,3.94722 1.52415,-1.42308 2.9144,-3.0047 4.57244,-4.26925 0.22662,-0.17284 -0.1229,0.56725 -0.0896,0.8503 0.0424,0.36058 0.16315,0.71243 0.31222,1.04348 0.72087,1.60089 2.02211,2.91592 3.15631,4.2176 3.29522,3.3607 6.4351,6.84151 9.13417,10.70116 1.53068,2.42507 3.17473,5.10606 1.97057,7.96687 -4.93023,5.3813 -5.76175,7.5031 -12.12001,6.98284 -1.68821,-0.34493 -4.41091,-0.59621 -5.3202,-2.39532 -0.17383,-0.34394 -0.17507,-0.75059 -0.2626,-1.12588 0.33723,-0.7672 0.67447,-1.5344 1.0117,-2.3016 0,0 0.11225,-0.1117 0.11225,-0.1117 l 0,0 c 0.74094,-0.34327 1.48189,-0.68654 2.22283,-1.02981 2.47537,-0.005 4.79746,0.9407 7.25914,1.15426 1.26701,0.048 2.485,0.0714 3.71829,-0.28878 2.69625,-0.78744 5.82211,-5.00328 -2.66586,3.75791 1.84084,-2.42267 0.0127,-5.13657 -1.35003,-7.3789 -2.63044,-3.87622 -5.76528,-7.33196 -9.01119,-10.70196 -0.73365,-0.84061 -4.84123,-5.513 -3.82403,-6.86655 1.61727,-2.15202 3.60804,-3.99611 5.41206,-5.99417 2.43926,-1.87188 5.62248,-2.28979 8.52508,-3.06505 0,0 -4.00906,4.90733 -4.00906,4.90733 z"
         id="path3286"
         style="fill:#333333;fill-opacity:1;fill-rule:nonzero;stroke:none" />
      <path
         transform="translate(0,284.3623)"
         inkscape:connector-curvature="0"
         d="m 284.31974,688.55963 c 0.45938,-2.34017 1.04377,-4.65262 1.60371,-6.96995 -0.1714,-2.65444 6.34468,-8.43838 5.66451,-4.37009 -1.06123,5.87942 -1.00394,11.87068 -0.92253,17.81996 0.26973,8.73146 0.89446,17.4478 1.67441,26.14708 0.34981,3.94711 0.776,7.88645 1.2257,11.82268 0.2533,1.8826 0.0892,0.65843 -0.63447,1.35617 -0.43215,0.60001 -0.8643,1.20001 -1.29645,1.80002 0,0 0.1277,-0.0936 0.1277,-0.0936 l 0,0 c -0.65165,0.8395 -1.30329,1.679 -1.95494,2.5185 -0.94248,0.86184 -1.38332,0.32119 -1.7904,-0.63366 -1.2453,-3.75519 -0.95345,-7.82169 -1.50722,-11.70182 -0.7488,-8.72569 -1.34722,-17.4661 -1.67422,-26.21851 -0.12687,-5.97758 -0.33736,-12.04977 0.80825,-17.94973 0.80636,-3.18842 8.16388,-8.99159 5.28097,-4.50824 -0.93847,2.42765 -1.65389,4.93467 -2.29157,7.45652 0,0 -4.31345,3.52471 -4.31345,3.52471 z"
         id="path3288"
         style="fill:#333333;fill-opacity:1;fill-rule:nonzero;stroke:none" />
      <path
         transform="translate(0,284.3623)"
         inkscape:connector-curvature="0"
         d="m 272.81357,697.96352 c -0.83308,-4.97235 0.58335,-8.1214 3.74697,-11.86653 2.50777,-2.39712 4.9214,-4.89678 7.52332,-7.19136 0.72539,-0.6397 1.59847,-1.09151 2.42968,-1.58597 3.26522,-1.94236 6.69532,-3.25272 10.35498,-4.21016 2.92751,-0.51716 6.51488,-0.66286 8.42149,2.1071 0.31799,0.46199 0.4983,1.00494 0.74746,1.50742 1.17692,4.3318 -0.36682,8.5627 -2.07868,12.51711 -2.69603,5.46368 -7.00128,9.85921 -11.73213,13.67274 -2.29011,1.78441 -5.15029,5.32735 4.06958,-4.1942 0.006,-0.007 -0.44813,-0.14268 -0.006,-0.20951 0.22295,-0.0337 0.45085,0.0106 0.67628,0.016 3.65858,-0.0308 6.74456,1.42157 9.68529,3.46329 4.32492,3.58293 6.84862,8.4151 7.98434,13.83485 0.44288,4.45803 -1.40539,8.19398 -4.60809,11.20428 -2.51926,2.3679 -5.10502,4.66405 -7.65752,6.99607 -3.95127,2.25119 -8.51895,3.4756 -13.02835,2.27105 -0.89517,-0.23912 -1.73787,-0.64328 -2.6068,-0.96492 -4.20994,-2.2832 -8.13254,-5.60909 -9.91621,-10.18816 -0.31926,-0.81962 -0.48228,-1.69181 -0.72343,-2.53772 0.76993,-3.97674 0.71702,-2.19026 0.50458,-5.33802 0,0 0.11721,-0.10647 0.11721,-0.10647 l 0,0 c 1.37127,1.95729 0.39148,1.20218 3.27164,1.75158 3.86061,3.72482 7.03606,8.31707 11.99406,10.68558 0.8325,0.28727 1.64104,0.65676 2.4975,0.86181 4.40628,1.05497 8.80916,-0.34233 12.55339,-2.65285 -1.09903,1.26428 -2.33279,2.42303 -3.29709,3.79286 -0.5042,0.71624 1.31935,-1.15899 1.90284,-1.81227 2.22091,-2.48657 3.37252,-5.45574 3.1776,-8.79476 -0.96274,-5.26745 -3.37052,-9.95013 -7.57289,-13.39185 -2.89431,-1.95313 -5.89182,-3.19219 -9.44281,-3.12578 -5.40272,-0.70342 2.55756,-5.72613 5.09724,-7.8736 2.36218,-2.05745 1.76832,-1.57993 -3.53162,3.71163 -0.39115,0.39053 0.7773,-0.78736 1.13689,-1.20714 1.31734,-1.53783 2.39913,-3.25589 3.32026,-5.05553 1.7292,-3.75286 3.34761,-7.78284 2.48529,-11.98221 -0.19427,-0.44289 -0.3212,-0.92192 -0.58282,-1.32867 -1.65875,-2.57887 -5.22684,-2.04863 -7.75423,-1.57908 -2.64498,0.74659 -5.13066,1.61898 -7.57901,2.89291 -0.87185,0.45364 -1.73104,0.93431 -2.56288,1.45772 -0.81294,0.51153 -2.78912,2.50649 -2.36647,1.64398 0.7286,-1.48688 2.23709,-2.44174 3.35564,-3.66261 -3.12464,3.35099 -4.91343,6.53477 -4.16535,11.25309 0,0 -5.84081,5.21834 -5.84081,5.21834 z"
         id="path3290"
         style="fill:#333333;fill-opacity:1;fill-rule:nonzero;stroke:none" />
      <path
         transform="translate(0,284.3623)"
         inkscape:connector-curvature="0"
         d="m 338.1649,725.20266 c 1.11595,-3.68577 1.75022,-7.4815 1.81609,-11.32883 -0.0197,-2.66228 -0.76497,-4.94051 -2.8238,-6.6565 -2.40561,-1.50876 -5.07532,-1.37208 -7.72362,-0.71955 -1.53879,0.51811 -2.94986,1.31524 -4.17184,2.38868 -0.44221,0.38845 -1.68301,1.64553 -1.24698,1.25018 4.22155,-3.82773 4.99051,-5.34186 2.92976,-2.08658 -2.13167,3.98232 -2.63103,8.43609 -2.46892,12.8804 0.34693,2.68309 0.22911,5.72873 3.57649,5.90042 3.04233,-0.50915 5.57287,-2.36736 7.85306,-4.33777 -8.33576,8.40356 -3.76121,4.03122 -2.39423,1.72524 0.79361,-1.33876 1.27153,-2.75199 1.71259,-4.23287 0.58453,-2.24328 0.81443,-4.55692 0.69646,-6.86886 -0.0228,-0.21161 -0.0379,-0.42421 -0.0684,-0.63484 -0.19184,-1.32286 0.009,0.15581 -0.16112,-0.65709 -0.008,-0.0376 0.0195,0.12818 0.0493,0.10401 1.84699,-1.4976 3.52823,-3.20643 5.46985,-4.57912 0.21533,-0.15223 -0.0683,0.52298 -0.10246,0.78447 -0.27351,3.38169 0.0152,6.7669 0.48225,10.11617 0.61647,3.83534 1.89896,7.42034 4.63471,10.22482 3.0571,2.33419 6.70441,1.54217 10.15748,0.69601 0.5113,0.0905 3.54067,-1.61446 3.93271,-0.42392 0.11161,0.33892 -0.1164,0.70409 -0.17459,1.05613 0,0 -0.0976,0.12466 -0.0976,0.12466 l 0,0 c -2.53016,2.24852 -5.0494,4.29035 -8.42237,5.10511 -3.79818,0.97827 -7.64559,1.62355 -10.93966,-1.02966 -2.83771,-2.92941 -4.29566,-6.60996 -4.93272,-10.62191 -0.47799,-3.43007 -0.75555,-6.89132 -0.49481,-10.35491 0.29708,-3.41018 6.09977,-9.73208 6.36692,-4.85528 0.24649,2.35514 0.007,4.72665 -0.48351,7.03812 -1.65021,6.24453 -4.66719,8.86403 -9.82709,13.49386 -2.44925,1.98806 -5.17216,3.9096 -8.43618,4.03454 -3.72283,-0.73243 -3.90495,-3.39212 -4.31362,-6.72212 -0.12026,-4.62529 0.36616,-9.24331 2.46161,-13.44378 2.5147,-4.24995 0.84706,-1.7288 7.31185,-8.34255 1.54671,-1.58235 3.45793,-2.68562 5.60232,-3.22127 2.80021,-0.45229 5.60683,-0.3301 8.02441,1.32822 2.17077,1.87218 3.12307,4.27408 3.17367,7.14752 -0.022,3.92304 -0.68678,7.78128 -1.78234,11.54844 0,0 -5.18557,4.17041 -5.18557,4.17041 z"
         id="path3294"
         style="fill:#333333;fill-opacity:1;fill-rule:nonzero;stroke:none" />
      <path
         transform="translate(0,284.3623)"
         inkscape:connector-curvature="0"
         d="m 369.21196,664.04879 c -2.53333,7.40141 -3.02516,15.22895 -3.29798,22.98152 -0.11723,8.8061 0.47777,17.61362 2.07106,26.27648 0.73794,3.74204 1.73427,6.57022 4.85974,8.83329 1.03346,0.63326 4.9318,2.5105 5.05004,3.84661 0.0522,0.59036 -0.25354,1.1579 -0.3803,1.73684 0.20698,0.11546 0.41397,0.23092 0.62096,0.34638 0,0 -0.1041,0.11932 -0.1041,0.11932 l 0,0 c -0.36208,0.0555 -0.72417,0.11093 -1.08625,0.1664 -0.77464,0.40385 -1.49727,0.92909 -2.32394,1.21157 -2.31051,0.78952 -5.32592,-0.6291 -7.23655,-1.79774 -3.27582,-2.43087 -4.44598,-5.33899 -5.19995,-9.3251 -1.57529,-8.73032 -2.16218,-17.59978 -2.09842,-26.46857 0.22139,-7.85097 0.55987,-15.83656 3.28365,-23.29379 0,0 5.84204,-4.63321 5.84204,-4.63321 z"
         id="path3296"
         style="fill:#333333;fill-opacity:1;fill-rule:nonzero;stroke:none" />
      <path
         transform="translate(0,284.3623)"
         inkscape:connector-curvature="0"
         d="m 395.61424,719.98745 c 0.25084,-3.32598 -0.0881,-6.7144 -2.47812,-9.19735 -1.66501,-1.03613 -3.38629,-0.54505 -4.92556,0.52102 -0.49242,0.34104 -1.79769,1.57972 -1.3825,1.14797 1.05677,-1.09894 2.20799,-2.10296 3.31199,-3.15444 -2.85912,3.52467 -3.68717,7.757 -3.42011,12.17828 0.40732,1.93495 0.96142,5.51926 3.56157,5.72473 0.40784,0.0322 0.81208,-0.10014 1.21812,-0.15021 0.4626,-0.21248 0.95503,-0.36937 1.38781,-0.63743 0.53207,-0.32958 1.90656,-1.61023 1.48867,-1.14429 -1.13358,1.26391 -2.27581,2.55511 -3.64921,3.55323 -0.70511,0.51244 1.11662,-1.34267 1.60289,-2.06607 1.47714,-2.19743 1.73944,-3.08662 2.83682,-5.5475 2.96972,-7.85302 3.48126,-16.25371 3.56084,-24.56211 -0.0816,-5.76552 -0.66758,-11.51649 -1.81655,-17.16593 10e-6,-1.2e-4 -1.1995,-4.42381 -0.77694,-2.82647 1.53468,-1.47273 2.97248,-3.05358 4.60405,-4.41819 0.21734,-0.18177 -0.2076,0.52857 -0.28076,0.80229 -0.26495,0.9912 -0.4409,2.20516 -0.55559,3.19858 -0.28687,2.48472 -0.26679,3.09641 -0.39489,5.7488 -0.22693,9.03296 0.63576,18.04051 1.9349,26.96749 0.52096,3.2684 1.25893,6.49179 2.0894,9.69295 0.31906,1.22988 0.80604,2.76175 0.88639,4.0598 0.0385,0.62269 -0.0544,1.24659 -0.0816,1.86988 -0.12233,0.62614 -0.24466,1.25229 -0.36699,1.87843 0,0 -0.11262,0.11132 -0.11262,0.11132 l 0,0 c -0.60997,0.0781 -1.21994,0.15623 -1.82991,0.23435 -0.53129,-0.1183 -1.11326,-0.0994 -1.59388,-0.35489 -3.0887,-1.64187 -3.92938,-9.62115 -4.60712,-12.55407 -1.29183,-9.01912 -2.10786,-18.12093 -1.83298,-27.24239 0.13251,-2.62926 0.26605,-5.2239 0.71754,-7.82104 0.009,-0.053 0.42855,-2.20672 0.53548,-2.33278 1.59001,-1.8744 3.38602,-3.56383 5.07903,-5.34574 1.50323,0.4557 1.33769,2.47849 1.74523,3.74635 1.12153,5.69201 1.71755,11.47443 1.89922,17.27298 0.11037,8.26788 -0.22504,16.63017 -3.02909,24.50251 -2.73069,6.55828 -7.19239,13.80116 -14.30237,16.12304 -0.48643,-0.0114 -0.98307,0.0657 -1.45928,-0.0341 -2.93297,-0.61461 -3.6328,-4.11069 -3.92338,-6.57696 -0.10678,-4.62524 0.72719,-9.16247 3.5345,-12.96476 1.91971,-1.93984 7.0918,-9.41871 11.68959,-7.60785 0.4235,0.1668 0.77566,0.4765 1.16349,0.71474 2.4013,2.84079 2.77171,6.46119 2.30026,10.07218 0,0 -4.32838,3.58369 -4.32838,3.58369 z"
         id="path3298"
         style="fill:#333333;fill-opacity:1;fill-rule:nonzero;stroke:none" />
      <path
         transform="translate(0,284.3623)"
         inkscape:connector-curvature="0"
         d="m 419.03886,720.7873 c 1.57637,-0.92365 3.08852,-1.96876 4.43754,-3.20619 0.48153,-0.44168 1.86726,-1.82759 1.38046,-1.39173 -3.5065,3.13961 -4.4394,4.65897 -2.28027,1.63589 1.53778,-2.56944 3.06429,-5.52879 2.35194,-8.58641 -1.72441,-2.50985 -5.0287,-0.35131 -6.89409,0.87254 -0.5304,0.48266 -2.11686,1.93581 -1.5912,1.44799 1.20541,-1.11866 2.19144,-2.54462 3.63051,-3.34053 0.70282,-0.38871 -0.90149,1.3329 -1.28068,2.0409 -1.26988,2.371 -1.84696,4.81086 -2.35608,7.42393 -0.27522,3.13932 -0.66748,7.3269 1.90416,9.74748 0.40565,0.38182 0.92454,0.62177 1.38681,0.93266 3.88857,1.77101 8.18267,0.76851 12.27686,1.17099 0.80627,0.0793 1.5962,0.27846 2.39431,0.41768 0.88945,-0.0293 1.77891,-0.0585 2.66836,-0.0878 0,0 -0.10025,0.12258 -0.10025,0.12258 l 0,0 c -1.21585,0.42642 -2.43171,0.85284 -3.64756,1.27926 -5.95664,2.42359 -12.61167,4.89076 -19.02132,2.72725 -0.52072,-0.36776 -1.1006,-0.66357 -1.56216,-1.10329 -2.72397,-2.59508 -2.56605,-6.85682 -2.30549,-10.27033 1.55329,-8.25421 4.6848,-12.76319 11.90157,-18.12412 2.4306,-1.29347 5.6899,-2.53959 7.50157,0.33612 0.87417,3.1703 -0.3108,6.21635 -1.92364,8.96844 -3.27617,4.9079 -7.81286,9.19946 -12.90214,12.20801 0,0 4.03079,-5.22132 4.03079,-5.22132 z"
         id="path3300"
         style="fill:#333333;fill-opacity:1;fill-rule:nonzero;stroke:none" />
      <path
         transform="translate(0,284.3623)"
         inkscape:connector-curvature="0"
         d="m 457.02193,721.99097 c -0.0278,-3.68265 -1.04736,-6.99283 -3.6579,-9.6172 -2.9971,-2.22497 -6.52031,-2.16452 -9.96189,-1.20041 -0.53363,0.26641 -1.09849,0.47776 -1.60087,0.79923 -0.51402,0.32892 -1.85685,1.57883 -1.43155,1.1412 1.22435,-1.25985 2.39173,-2.61363 3.83537,-3.61471 0.53502,-0.37101 -0.73629,1.07941 -1.02255,1.66418 -0.7855,1.60457 -0.81794,2.29577 -1.18562,4.03385 -0.4006,3.36455 -0.1766,6.94782 2.23069,9.51971 2.82363,1.68129 5.57628,-0.51392 7.68548,-2.34632 -7.77743,8.15262 -3.10035,3.0019 -1.77639,0.78038 0.75045,-1.25921 1.33375,-2.58282 1.89429,-3.9327 1.45576,-4.09379 0.98038,-2.52022 6.60644,-6.56319 -0.11423,2.52214 0.1814,4.99902 0.70508,7.46089 0.70533,2.86642 2.07951,5.45409 3.84825,7.79388 0.53903,1.9633 0.27572,0.97945 0.78988,2.95155 0,0 -0.10603,0.11761 -0.10603,0.11761 l 0,0 c -3.132,0.91575 -1.58986,0.58998 -4.6171,1.02041 -3.71768,-1.20633 -4.64902,-3.10873 -5.66204,-6.7575 -0.56886,-2.54577 -0.9338,-5.13084 -0.64842,-7.74334 7.29075,-6.70132 6.28448,-7.18813 4.98725,-2.94448 -2.24511,5.7833 -5.56627,9.81725 -10.55372,13.92988 -2.55591,1.99661 -5.65084,3.89314 -8.72194,1.76288 -2.61876,-2.81989 -2.93177,-6.58014 -2.4764,-10.2859 0.36081,-1.76742 0.44531,-2.66659 1.16926,-4.32397 1.93596,-4.43208 5.96603,-8.17096 10.46112,-9.87742 3.63693,-0.70431 7.27701,-0.51875 10.26698,1.92137 2.74583,2.99812 3.71454,6.32098 3.58534,10.37487 0,0 -4.64301,3.93525 -4.64301,3.93525 z"
         id="path3302"
         style="fill:#333333;fill-opacity:1;fill-rule:nonzero;stroke:none" />
      <path
         transform="translate(0,284.3623)"
         inkscape:connector-curvature="0"
         d="m 474.58869,706.33032 c 0.34051,4.51273 1.08242,8.96011 2.51258,13.25559 0.97668,2.39394 2.19983,4.92191 4.77389,5.84077 0.24069,0.0161 0.48137,0.064 0.72209,0.0483 1.02077,-0.0668 2.2657,-1.44432 1.79457,-0.98522 -4.93753,4.8114 -5.86155,6.28038 -3.96245,3.53622 1.73618,-3.21428 2.26924,-6.87441 2.71046,-10.45243 0.26352,-2.48005 0.40924,-4.98411 0.0376,-7.45825 -0.60888,-2.56239 -3.89892,1.01616 5.17249,-4.6076 0.26977,-0.16724 -0.0731,0.63121 -0.0854,0.94837 -0.0524,1.3437 0.0188,2.02945 0.0893,3.43575 0.29989,4.98325 1.58339,9.78287 3.52549,14.3595 0.88586,2.50879 3.07486,4.05825 4.49424,6.19391 0.11353,1.631 0.17615,0.76108 -0.32003,2.59687 0,0 -0.10673,0.11697 -0.10673,0.11697 l 0,0 c -2.35171,1.24781 -1.18255,0.7715 -3.48061,1.49322 -3.76831,-0.0891 -4.69362,-1.93643 -6.31005,-5.10062 -1.98074,-4.64958 -3.35645,-9.52942 -3.68227,-14.59627 -0.19537,-6.12155 -0.50191,-4.60902 5.73944,-10.15086 0.19409,-0.17234 0.0437,1.11386 0.18391,0.75665 0.16881,2.56352 0.20727,5.13547 -0.0803,7.69382 -0.3848,3.49259 -0.78095,7.04802 -2.09443,10.33583 -1.57829,3.20031 -5.39306,8.34592 -9.61444,7.56231 -2.7677,-1.13365 -4.23684,-3.61066 -5.25086,-6.33652 -1.44246,-4.4348 -2.21866,-9.03966 -2.30683,-13.70936 0,0 5.53843,-4.77694 5.53843,-4.77694 z"
         id="path3304"
         style="fill:#333333;fill-opacity:1;fill-rule:nonzero;stroke:none" />
    </g>
  </g>
</svg>
